<svg version="1.1" id="Layer_1" xmlns="http://www.w3.org/2000/svg" xmlns:xlink="http://www.w3.org/1999/xlink" x="0px" y="0px"
	 width="100%" viewBox="0 0 250 250" enable-background="new 0 0 250 250" xml:space="preserve">
<path fill="#FFFFFF" opacity="1.000000" stroke="none" 
	d="
M138.000000,251.000000 
	C92.000000,251.000000 46.500004,251.000000 1.000006,251.000000 
	C1.000004,167.666672 1.000004,84.333351 1.000002,1.000017 
	C84.333321,1.000012 167.666641,1.000012 250.999969,1.000006 
	C250.999985,84.333321 250.999985,167.666641 251.000000,250.999969 
	C213.500000,251.000000 176.000000,251.000000 138.000000,251.000000 
M113.235207,161.847076 
	C113.071678,162.185074 112.908157,162.523071 112.744621,162.861069 
	C113.174049,162.733551 113.603477,162.606033 114.054199,162.430283 
	C114.054199,162.430283 114.061516,162.456863 114.315636,163.065094 
	C114.833214,163.450455 115.350792,163.835831 116.091827,164.827713 
	C117.727943,165.243271 119.364052,165.658829 121.689079,166.091110 
	C122.649422,165.312622 123.609772,164.534149 125.276031,163.912170 
	C125.515182,163.942093 125.754333,163.972031 126.180695,164.506363 
	C126.514404,164.928802 126.848114,165.351227 127.167763,166.519516 
	C127.861549,168.094467 128.325363,169.836060 129.312546,171.198410 
	C130.340042,172.616364 131.872879,173.668167 133.652985,175.181366 
	C134.141754,175.735703 134.630539,176.290039 135.095779,177.552551 
	C139.386246,183.027649 143.294022,188.997925 151.738892,189.944138 
	C152.164001,189.946884 152.589127,189.949631 153.015381,190.731277 
	C153.030319,191.508759 153.045242,192.286255 153.004761,192.997253 
	C153.004761,192.997253 153.068832,193.057083 152.459076,193.055115 
	C152.145737,193.473816 151.832397,193.892532 151.519058,194.311234 
	C152.046097,194.518951 152.573135,194.726685 153.609344,195.311081 
	C154.829651,196.765961 156.049942,198.220840 157.169830,200.413971 
	C158.531052,201.540085 159.892273,202.666214 161.796219,203.840942 
	C162.158508,203.864502 162.520782,203.888077 163.489655,203.958755 
	C163.639633,203.302597 163.789612,202.646423 163.963181,201.348511 
	C164.058426,200.931976 164.153671,200.515427 164.845306,199.938232 
	C164.877686,198.955597 164.910065,197.972946 165.006973,196.107925 
	C164.955002,193.754333 164.903030,191.400757 165.442413,188.680679 
	C166.722748,186.849014 168.003082,185.017365 169.895218,182.955475 
	C170.933121,181.311386 171.971008,179.667297 173.371674,177.571945 
	C173.917206,177.394165 174.462723,177.216385 175.455154,177.537704 
	C176.643112,177.313324 177.831055,177.088943 179.877792,176.941696 
	C181.875595,177.077560 183.873398,177.213425 186.061752,177.964539 
	C187.510345,179.232086 188.550430,182.482574 191.314560,178.412125 
	C192.208618,176.928528 193.102676,175.444931 194.614838,173.746292 
	C195.061066,172.833984 195.507294,171.921677 196.161484,170.470520 
	C196.248611,170.096161 196.335739,169.721786 196.875916,168.974167 
	C197.361969,168.150543 197.848022,167.326935 198.677307,166.265457 
	C198.677307,166.265457 198.994797,165.994202 199.605209,165.996323 
	C200.069611,165.657318 200.533997,165.318329 201.788513,165.140167 
	C203.128815,165.175583 204.469131,165.210999 206.069702,165.844894 
	C208.281891,167.523575 210.547516,169.556213 212.010193,164.232681 
	C213.000015,161.625031 213.799072,158.923050 215.029404,156.434296 
	C216.471054,153.518036 218.288055,150.787369 220.503632,147.648254 
	C221.009003,146.770660 221.514359,145.893066 222.581314,144.600494 
	C222.632324,143.462280 222.683334,142.324066 222.791443,140.351547 
	C222.113281,136.920593 221.435120,133.489639 220.829941,129.288315 
	C220.121643,126.807030 219.413345,124.325745 218.799988,121.223473 
	C218.901611,120.819687 219.003250,120.415901 219.817245,119.858292 
	C220.013016,118.265167 220.953308,116.149612 220.268814,115.174149 
	C217.961029,111.885216 215.075821,109.001427 212.156387,105.256241 
	C210.559753,102.694351 208.963120,100.132469 207.193069,96.950027 
	C206.140015,95.959641 205.086975,94.969246 204.000610,93.998863 
	C204.000610,93.998863 204.029480,93.972130 204.335220,93.238960 
	C201.409424,87.369370 198.483643,81.499771 195.081772,75.127266 
	C190.057999,72.369095 185.034225,69.610931 179.879776,66.183067 
	C178.265503,65.448021 176.651245,64.712967 175.015747,63.993378 
	C175.015747,63.993378 175.018265,63.961037 174.908081,63.278019 
	C172.547180,61.881264 170.186279,60.484509 167.401123,59.065655 
	C167.401123,59.065655 166.990036,58.958420 166.791718,58.525856 
	C166.597885,58.257084 166.340973,58.079601 165.377945,57.761120 
	C161.738480,55.804672 158.099014,53.848225 154.178024,51.504200 
	C154.178024,51.504200 153.950577,51.082619 153.915924,50.328629 
	C152.111786,47.451836 150.189835,46.384598 147.998123,49.998287 
	C147.998123,49.998287 147.943176,49.963497 147.071289,49.962231 
	C144.358063,50.560074 141.644821,51.157921 138.014374,51.905643 
	C131.122162,52.033646 124.229958,52.161648 116.553154,52.058105 
	C115.383316,52.707752 114.213486,53.357395 112.515709,54.417332 
	C112.347931,55.279125 112.180153,56.140923 111.630814,57.482243 
	C110.391861,56.614498 109.184807,55.695572 107.902893,54.896767 
	C107.030228,54.352978 105.738899,53.346565 105.172890,53.628254 
	C101.345192,55.533207 97.661003,57.726509 93.382545,60.164852 
	C92.404022,60.591320 91.425491,61.017792 89.666847,61.230751 
	C81.420044,64.872566 73.165855,68.497948 64.945091,72.197601 
	C64.459404,72.416176 64.242645,73.232300 63.411079,74.001106 
	C63.062511,74.092506 62.713940,74.183907 61.603874,74.178024 
	C60.710941,76.113731 59.818008,78.049438 58.205605,79.999336 
	C56.215088,80.019257 53.308075,77.768532 52.708965,82.601151 
	C51.740406,83.367638 50.771847,84.134117 49.104847,84.935860 
	C46.112350,88.024384 43.119854,91.112907 39.987644,94.576141 
	C39.987644,94.576141 39.763763,94.907532 39.117378,95.078377 
	C38.423145,96.734650 37.728912,98.390915 36.997799,100.003029 
	C36.997799,100.003029 37.044682,100.035294 36.323956,100.091743 
	C34.714436,105.209312 33.104916,110.326889 31.385162,116.151672 
	C31.196997,117.085045 31.008831,118.018417 30.204834,119.068329 
	C30.134985,120.045319 30.065136,121.022308 30.001970,122.775391 
	C29.919584,123.546700 29.837198,124.318008 29.341660,125.458061 
	C29.965263,126.313026 30.588869,127.167999 31.093088,128.730820 
	C32.375626,130.568863 26.996439,132.076645 31.093712,134.665833 
	C31.546856,135.937027 32.000004,137.208237 32.228413,139.276154 
	C33.818165,142.518036 35.407913,145.759918 37.417873,149.391403 
	C37.576038,149.934738 37.734200,150.478088 37.434113,151.476639 
	C38.736141,157.614380 41.692856,160.659409 48.116318,161.730408 
	C50.038952,161.896851 51.961586,162.063293 54.056824,162.812302 
	C55.034771,162.906372 56.012718,163.000443 57.711002,163.163681 
	C59.111595,163.533737 60.512188,163.903793 62.138538,164.932434 
	C65.701454,168.278702 69.308044,166.713531 73.278313,165.620743 
	C76.491264,167.138931 79.704216,168.657120 83.034729,170.724823 
	C83.693504,170.781586 84.352280,170.838348 85.667786,170.925934 
	C86.105972,170.933395 86.544167,170.940842 87.333733,171.475388 
	C88.555122,171.252823 89.776512,171.030258 91.467972,171.388992 
	C93.406303,171.168732 95.344643,170.948456 97.983963,170.792068 
	C100.634659,169.180954 103.285355,167.569855 106.593224,165.930618 
	C106.772026,164.944153 106.950836,163.957687 107.044884,162.169159 
	C107.019043,161.356812 106.993202,160.544449 107.754478,159.935562 
	C109.083260,159.868973 110.412041,159.802399 112.560951,159.909729 
	C113.387939,159.940445 114.214928,159.971161 114.873383,160.437546 
	C114.873383,160.437546 114.624359,160.832779 114.241066,161.022812 
	C114.023277,161.211990 113.845520,161.433319 113.235207,161.847076 
z"/>
<path fill="#3A9CE0" opacity="1.000000" stroke="none" 
	d="
M90.446968,61.444260 
	C91.425491,61.017792 92.404022,60.591320 94.025726,60.014511 
	C97.919716,58.545959 101.170532,57.227745 104.421349,55.909534 
	C104.665298,56.243393 104.909248,56.577251 105.153206,56.911114 
	C100.437698,64.275116 95.722198,71.639122 90.674774,79.108093 
	C87.886406,79.521538 85.429962,79.830025 82.756470,79.868240 
	C81.648010,79.585716 80.756592,79.573463 79.495468,79.424591 
	C78.078461,79.219063 77.031166,79.150146 75.768677,78.805206 
	C74.661606,78.514511 73.769722,78.499840 72.531349,78.364441 
	C71.457626,78.161171 70.730400,78.078621 69.747665,77.733589 
	C67.116554,76.405838 64.740959,75.340576 62.365368,74.275307 
	C62.713940,74.183907 63.062511,74.092506 64.021149,73.914551 
	C73.236473,69.700081 81.841721,65.572166 90.446968,61.444260 
z"/>
<path fill="#EEF1F6" opacity="1.000000" stroke="none" 
	d="
M212.411438,105.962692 
	C215.075821,109.001427 217.961029,111.885216 220.268814,115.174149 
	C220.953308,116.149612 220.013016,118.265167 219.425308,119.547150 
	C217.360519,116.630096 215.687683,114.024193 214.016830,111.146881 
	C212.421906,111.094055 210.824997,111.312630 209.082886,111.237930 
	C205.613541,109.306084 202.289413,107.667526 199.009674,105.671890 
	C193.894318,101.861557 188.734543,98.408302 183.525055,94.984650 
	C183.475327,95.014252 183.370178,95.062592 183.263123,94.723915 
	C183.130829,93.914841 183.105560,93.444435 183.450043,92.969421 
	C188.558105,89.273643 189.945480,84.162605 190.183136,78.341080 
	C191.142563,78.206230 191.880203,78.200752 192.692078,78.557930 
	C195.691528,83.311127 198.573990,87.731308 201.580048,92.065765 
	C202.142776,92.877197 203.200302,93.345490 204.029480,93.972130 
	C204.029480,93.972130 204.000610,93.998863 203.882233,94.330284 
	C204.459045,96.140045 205.154205,97.618385 205.928955,99.443970 
	C207.270187,102.081146 208.464554,104.415054 209.890350,106.597809 
	C210.044739,106.834183 211.538788,106.195488 212.411438,105.962692 
z"/>
<path fill="#F5F7FA" opacity="1.000000" stroke="none" 
	d="
M166.020981,57.993416 
	C166.340973,58.079601 166.597885,58.257084 166.911362,59.043411 
	C167.124329,60.060146 167.217651,60.559322 167.310974,61.058495 
	C167.482452,61.034439 167.653915,61.010384 167.825378,60.986328 
	C167.825378,60.353470 167.825378,59.720615 167.825378,59.087757 
	C170.186279,60.484509 172.547180,61.881264 174.610199,63.600388 
	C173.100113,63.628189 171.887909,63.333622 170.675705,63.039055 
	C170.527695,63.443542 170.379684,63.848030 170.231674,64.252518 
	C175.697540,67.644737 181.163391,71.036964 186.629257,74.429184 
	C186.495712,74.938553 186.362167,75.447914 186.228622,75.957283 
	C177.161835,75.957283 168.095032,75.957283 158.704712,75.788300 
	C157.729950,74.911995 156.664795,74.292427 156.493256,73.483398 
	C155.178177,67.280945 154.036880,61.041637 153.227600,54.846893 
	C157.605743,56.943317 161.597839,59.006634 166.020981,61.292728 
	C166.020981,59.931389 166.020981,58.962402 166.020981,57.993416 
z"/>
<path fill="#3A9FE5" opacity="1.000000" stroke="none" 
	d="
M29.754814,125.089317 
	C29.837198,124.318008 29.919584,123.546700 30.237000,122.157280 
	C30.588242,120.676712 30.704453,119.814247 30.820663,118.951790 
	C31.008831,118.018417 31.196997,117.085045 31.726553,115.595612 
	C33.726856,110.038132 35.385773,105.036713 37.044685,100.035294 
	C37.044682,100.035294 36.997799,100.003029 37.371689,100.084122 
	C44.541962,103.801918 51.338345,107.438622 57.967720,111.260849 
	C57.800709,111.446373 57.544312,111.874588 57.195030,111.875061 
	C47.815441,116.280128 38.785130,120.684723 29.754814,125.089317 
z"/>
<path fill="#3A84BE" opacity="1.000000" stroke="none" 
	d="
M117.337753,52.289650 
	C124.229958,52.161648 131.122162,52.033646 138.904846,51.950706 
	C142.144760,51.883736 144.494186,51.771702 146.912903,52.053059 
	C149.444092,58.193233 151.758514,63.971603 150.470398,70.369736 
	C139.133392,65.167999 128.161972,60.039673 117.123611,54.580711 
	C117.150368,53.596603 117.244057,52.943127 117.337753,52.289650 
z"/>
<path fill="#7EC0EB" opacity="1.000000" stroke="none" 
	d="
M111.740822,159.735809 
	C110.412041,159.802399 109.083260,159.868973 107.105484,159.553299 
	C105.459427,159.132111 104.462364,159.093185 103.298035,159.073074 
	C102.879646,158.964478 102.813400,158.773224 103.245239,158.312073 
	C103.116829,156.989182 102.675209,155.872330 102.130066,154.433624 
	C98.187828,150.004105 94.349098,145.896469 89.513458,140.722092 
	C93.612892,141.137009 96.078018,141.324219 98.525513,141.645676 
	C106.692352,142.718292 114.852875,143.839005 122.997818,145.298523 
	C119.233482,150.349075 115.487152,155.042450 111.740822,159.735809 
z"/>
<path fill="#81C2EA" opacity="1.000000" stroke="none" 
	d="
M53.884220,162.229721 
	C51.961586,162.063293 50.038952,161.896851 47.547123,161.379822 
	C44.605972,159.381393 44.641037,157.427689 45.888988,155.007370 
	C46.851723,153.140244 47.346394,151.031799 48.193741,148.714050 
	C49.841759,146.976059 51.345211,145.554657 53.037247,144.413025 
	C56.869522,147.482407 60.222965,150.826035 64.228661,152.924744 
	C69.514610,155.694214 69.510117,159.721329 68.674606,165.030762 
	C66.293335,164.764206 64.103058,164.519028 61.912781,164.273865 
	C60.512188,163.903793 59.111595,163.533737 57.139603,162.854004 
	C55.673542,162.439468 54.778881,162.334595 53.884220,162.229721 
z"/>
<path fill="#627BAC" opacity="1.000000" stroke="none" 
	d="
M39.763763,94.907532 
	C39.763763,94.907532 39.987644,94.576141 40.385437,94.302429 
	C43.789913,90.986008 46.796600,87.943306 49.803288,84.900604 
	C50.771847,84.134117 51.740406,83.367638 53.274239,82.301834 
	C54.670990,83.127975 55.902821,84.139008 56.262959,85.399170 
	C57.643063,90.228333 58.743233,95.137497 59.932690,100.388412 
	C60.204479,102.430016 60.491455,104.099998 60.418015,105.850685 
	C53.635719,102.985085 47.197044,100.073975 40.821079,97.031456 
	C40.258835,96.763153 40.106491,95.635857 39.763763,94.907532 
z"/>
<path fill="#D1E3F0" opacity="1.000000" stroke="none" 
	d="
M117.190544,54.911339 
	C128.161972,60.039673 139.133392,65.167999 150.678131,70.610077 
	C153.046661,72.929726 157.707031,74.304535 152.466003,77.778336 
	C151.774536,77.844185 151.381866,77.926170 150.621857,78.042152 
	C148.840836,78.429817 147.427124,78.783485 145.558289,79.046547 
	C138.440720,79.417984 131.778290,79.880020 125.082428,79.938957 
	C125.035545,78.997635 125.022087,78.459419 125.388077,77.828621 
	C133.140808,76.806190 140.514099,75.876335 148.206085,74.951035 
	C148.871078,74.547050 149.217361,74.138496 149.563644,73.729942 
	C149.017563,73.499222 148.471481,73.268501 147.575058,72.968613 
	C145.577896,72.127502 143.933762,71.349747 142.283813,70.584557 
	C132.848831,66.208992 123.412460,61.836407 113.753418,57.334511 
	C113.024307,57.138374 112.518341,57.070545 112.012367,57.002716 
	C112.180153,56.140923 112.347931,55.279125 113.133163,54.246193 
	C114.897263,54.353813 116.043900,54.632576 117.190544,54.911339 
z"/>
<path fill="#3F9FE1" opacity="1.000000" stroke="none" 
	d="
M37.892365,151.021423 
	C37.734200,150.478088 37.576038,149.934738 37.212280,148.819611 
	C35.488838,144.991684 33.970993,141.735565 32.453148,138.479431 
	C32.000004,137.208237 31.546856,135.937027 31.292965,134.041489 
	C33.603088,133.101425 35.713955,132.785706 37.881279,132.472809 
	C38.271622,132.476913 38.605518,132.478210 38.499615,132.572525 
	C36.896774,137.102692 40.806225,136.191284 43.139099,137.462341 
	C47.067833,139.065491 48.214939,141.496048 46.655315,145.162735 
	C46.139084,146.376404 45.814419,147.671555 45.080681,148.975800 
	C43.479507,151.197495 42.199818,153.372833 40.699608,155.923019 
	C39.593269,153.991302 38.742817,152.506363 37.892365,151.021423 
z"/>
<path fill="#5098D0" opacity="1.000000" stroke="none" 
	d="
M153.014236,189.952377 
	C152.589127,189.949631 152.164001,189.946884 151.354218,189.523529 
	C150.443726,183.437363 149.917923,177.771820 149.919678,172.013153 
	C150.789551,171.829895 151.131836,171.739777 151.784012,171.776917 
	C156.053986,174.690002 160.014084,177.475815 163.983917,180.671906 
	C164.024490,182.473358 164.055374,183.864532 163.796967,185.449677 
	C160.009872,187.079910 156.512054,188.516144 153.014236,189.952377 
z"/>
<path fill="#6181AF" opacity="1.000000" stroke="none" 
	d="
M127.181824,165.773651 
	C126.848114,165.351227 126.514404,164.928802 126.302734,163.927673 
	C127.742432,158.933380 129.060089,154.517776 130.693893,149.042755 
	C134.177948,154.042755 136.873703,158.167145 139.869461,162.060684 
	C140.814163,163.288513 142.562531,163.897980 144.099060,165.110504 
	C145.342728,166.377609 146.430420,167.324631 147.455811,168.545807 
	C147.301514,168.983292 147.209549,169.146606 146.849426,169.204041 
	C146.390320,169.075851 146.199402,169.053543 145.611542,169.018784 
	C144.421707,168.967224 143.628845,168.928116 142.840454,168.550140 
	C142.088135,167.791855 141.362732,167.087646 140.569321,167.000153 
	C136.115891,166.509125 131.646057,166.166763 127.181824,165.773651 
z"/>
<path fill="#88A1CC" opacity="1.000000" stroke="none" 
	d="
M159.028244,75.957283 
	C168.095032,75.957283 177.161835,75.957283 186.228622,75.957283 
	C186.362167,75.447914 186.495712,74.938553 186.629257,74.429184 
	C181.163391,71.036964 175.697540,67.644737 170.231674,64.252518 
	C170.379684,63.848030 170.527695,63.443542 170.675705,63.039055 
	C171.887909,63.333622 173.100113,63.628189 174.665283,63.941895 
	C175.018265,63.961037 175.015747,63.993378 175.156677,64.294159 
	C176.868561,65.347557 178.439499,66.100159 180.010452,66.852768 
	C185.034225,69.610931 190.057999,72.369095 194.973785,75.584099 
	C194.116486,76.759048 193.367172,77.477165 192.617859,78.195267 
	C191.880203,78.200752 191.142563,78.206230 189.765778,78.229980 
	C181.421738,78.532791 173.716812,78.817345 165.736389,78.963989 
	C164.467224,78.642403 163.473557,78.458725 162.117462,78.211273 
	C160.850342,78.431450 159.945679,78.715393 159.021301,78.619507 
	C159.010468,77.478874 159.019363,76.718079 159.028244,75.957283 
z"/>
<path fill="#CEDEEC" opacity="1.000000" stroke="none" 
	d="
M111.821594,57.242477 
	C112.518341,57.070545 113.024307,57.138374 113.714409,57.783478 
	C114.464668,61.158634 115.030807,63.956520 114.981537,66.862000 
	C113.958954,67.045204 113.551773,67.120811 112.942093,66.941132 
	C111.691040,64.055984 110.642502,61.426136 109.096825,57.549412 
	C104.093567,65.442078 99.783852,72.240669 95.194672,79.140305 
	C93.612366,79.161942 92.309525,79.082535 91.006691,79.003128 
	C95.722198,71.639122 100.437698,64.275116 105.153206,56.911114 
	C104.909248,56.577251 104.665298,56.243393 104.421349,55.909534 
	C101.170532,57.227745 97.919716,58.545959 94.299652,59.845356 
	C97.661003,57.726509 101.345192,55.533207 105.172890,53.628254 
	C105.738899,53.346565 107.030228,54.352978 107.902893,54.896767 
	C109.184807,55.695572 110.391861,56.614498 111.821594,57.242477 
z"/>
<path fill="#498DC0" opacity="1.000000" stroke="none" 
	d="
M102.932022,158.518143 
	C102.813400,158.773224 102.879646,158.964478 103.309814,159.437805 
	C104.394249,160.839233 105.299637,161.894745 106.196167,163.328888 
	C106.103569,164.457947 106.019814,165.208344 105.936050,165.958755 
	C103.285355,167.569855 100.634659,169.180954 97.633606,170.364380 
	C95.544243,164.463470 95.790810,158.047607 89.983871,154.289795 
	C90.012154,153.750992 90.020889,153.438522 90.143005,152.771973 
	C90.741508,150.975800 91.228844,149.533752 91.328300,149.239471 
	C94.436874,151.829208 97.687225,154.537079 101.088806,157.523621 
	C101.804024,158.040924 102.368027,158.279541 102.932022,158.518143 
z"/>
<path fill="#DDEAF4" opacity="1.000000" stroke="none" 
	d="
M62.025658,164.603149 
	C64.103058,164.519028 66.293335,164.764206 68.674606,165.030762 
	C69.510117,159.721329 69.514610,155.694214 64.228661,152.924744 
	C60.222965,150.826035 56.869522,147.482407 53.316017,144.269958 
	C53.935665,143.236404 54.465130,142.625656 55.314224,142.124146 
	C59.377617,144.926483 63.121376,147.619583 67.375656,150.679916 
	C67.646919,148.855408 67.783623,147.935974 68.225998,146.915649 
	C69.030029,147.348770 69.671249,147.808533 69.995850,148.432892 
	C70.598778,149.592590 71.016968,150.848328 71.653931,152.407318 
	C73.671906,154.925125 75.548019,157.099701 77.242432,159.632568 
	C76.675926,160.357758 76.291115,160.724655 75.591614,160.939209 
	C70.469429,159.962463 74.049240,163.807343 72.915703,165.028259 
	C69.308044,166.713531 65.701454,168.278702 62.025658,164.603149 
z"/>
<path fill="#D6E8F4" opacity="1.000000" stroke="none" 
	d="
M29.548237,125.273689 
	C38.785130,120.684723 47.815441,116.280128 57.564152,111.997787 
	C59.538994,113.846695 60.795437,115.573349 61.914398,117.616455 
	C60.041885,119.986343 58.306858,122.039772 56.567741,123.575012 
	C56.984604,120.902122 57.405552,118.747414 58.044323,115.477760 
	C54.741714,117.041862 52.407749,118.115082 50.101940,119.245735 
	C44.790195,121.850319 39.492138,124.482819 33.879612,127.175873 
	C32.784622,127.506157 31.998549,127.764557 31.212475,128.022964 
	C30.588869,127.167999 29.965263,126.313026 29.548237,125.273689 
z"/>
<path fill="#4086BD" opacity="1.000000" stroke="none" 
	d="
M142.835968,168.888992 
	C143.628845,168.928116 144.421707,168.967224 145.580551,169.257202 
	C145.946518,169.508057 145.966522,169.989197 145.936447,170.455963 
	C145.906372,175.755493 145.906372,180.588242 145.906372,185.957321 
	C142.005447,182.661804 138.562378,179.753082 135.119308,176.844376 
	C134.630539,176.290039 134.141754,175.735703 133.342926,174.682922 
	C132.426254,173.037216 131.819641,171.889969 131.231430,170.777527 
	C135.551575,170.074448 139.193771,169.481720 142.835968,168.888992 
z"/>
<path fill="#3C76AE" opacity="1.000000" stroke="none" 
	d="
M158.704712,75.788300 
	C159.019363,76.718079 159.010468,77.478874 158.950012,78.829971 
	C158.898422,79.420265 158.792282,79.851501 158.421005,79.864899 
	C156.351135,79.621185 154.652527,79.364090 152.934235,78.774872 
	C152.864624,78.226654 152.814697,78.010551 152.764786,77.794456 
	C157.707031,74.304535 153.046661,72.929726 151.043716,70.683472 
	C151.758514,63.971603 149.444092,58.193233 147.040802,51.827042 
	C147.380676,50.792923 147.661926,50.378212 147.943176,49.963497 
	C147.943176,49.963497 147.998123,49.998287 148.378540,49.944756 
	C150.489487,50.288357 152.220032,50.685490 153.950577,51.082619 
	C153.950577,51.082619 154.178024,51.504200 153.981140,51.843246 
	C153.470032,53.059460 153.155807,53.936623 152.841568,54.813786 
	C154.036880,61.041637 155.178177,67.280945 156.493256,73.483398 
	C156.664795,74.292427 157.729950,74.911995 158.704712,75.788300 
z"/>
<path fill="#D6E1EC" opacity="1.000000" stroke="none" 
	d="
M143.943085,164.790451 
	C142.562531,163.897980 140.814163,163.288513 139.869461,162.060684 
	C136.873703,158.167145 134.177948,154.042755 130.693893,149.042755 
	C129.060089,154.517776 127.742432,158.933380 126.209129,163.675476 
	C125.754333,163.972031 125.515182,163.942093 124.932358,163.408936 
	C124.982430,158.340912 125.376175,153.776138 126.162331,149.018234 
	C128.901947,148.528992 131.249161,148.232864 133.900787,148.006119 
	C135.973801,150.132904 137.742386,152.190308 139.598633,154.596634 
	C141.092636,157.324158 142.498932,159.702759 143.937225,162.419586 
	C143.960495,163.435364 143.951782,164.112915 143.943085,164.790451 
z"/>
<path fill="#C2D8EA" opacity="1.000000" stroke="none" 
	d="
M135.107544,177.198456 
	C138.562378,179.753082 142.005447,182.661804 145.906372,185.957321 
	C145.906372,180.588242 145.906372,175.755493 146.163879,170.405212 
	C146.729584,169.786774 146.961655,169.594177 147.117599,169.309906 
	C147.209549,169.146606 147.301514,168.983292 147.587860,168.470764 
	C147.782227,168.121582 148.052902,167.968506 148.035736,167.987885 
	C148.018570,168.007263 148.017319,167.955536 147.959290,168.311401 
	C148.398209,169.813599 148.895172,170.959930 149.392120,172.106262 
	C149.917923,177.771820 150.443726,183.437363 151.035583,189.512390 
	C143.294022,188.997925 139.386246,183.027649 135.107544,177.198456 
z"/>
<path fill="#6181AF" opacity="1.000000" stroke="none" 
	d="
M162.883072,203.911652 
	C162.520782,203.888077 162.158508,203.864502 161.427826,203.501221 
	C159.796356,201.999588 158.533295,200.837662 157.270233,199.675735 
	C156.049942,198.220840 154.829651,196.765961 153.392365,194.810272 
	C153.139862,193.891998 153.104355,193.474533 153.068832,193.057083 
	C153.068832,193.057083 153.004761,192.997253 153.397034,192.980621 
	C157.476547,191.658371 161.163788,190.352768 164.851044,189.047165 
	C164.903030,191.400757 164.955002,193.754333 164.720428,196.775574 
	C164.372223,198.328430 164.310562,199.213669 164.248901,200.098892 
	C164.153671,200.515427 164.058426,200.931976 163.723969,201.837860 
	C163.284180,202.855362 163.083618,203.383499 162.883072,203.911652 
z"/>
<path fill="#498DC0" opacity="1.000000" stroke="none" 
	d="
M125.769928,149.211349 
	C125.376175,153.776138 124.982430,158.340912 124.579391,163.330688 
	C123.609772,164.534149 122.649422,165.312622 121.136192,165.803055 
	C119.011658,165.083740 117.440010,164.652466 115.868362,164.221191 
	C115.350792,163.835831 114.833214,163.450455 114.414482,162.381485 
	C114.550331,161.409515 114.587341,161.121155 114.624359,160.832779 
	C114.624359,160.832779 114.873383,160.437546 115.277115,160.121643 
	C118.810844,156.336014 121.940834,152.866287 125.239525,149.326569 
	C125.408226,149.256592 125.769928,149.211349 125.769928,149.211349 
z"/>
<path fill="#C2D8EA" opacity="1.000000" stroke="none" 
	d="
M39.440571,94.992950 
	C40.106491,95.635857 40.258835,96.763153 40.821079,97.031456 
	C47.197044,100.073975 53.635719,102.985085 60.500320,106.224709 
	C60.006931,108.037132 59.070827,109.556229 58.134727,111.075325 
	C51.338345,107.438622 44.541962,103.801918 37.390129,100.106201 
	C37.728912,98.390915 38.423145,96.734650 39.440571,94.992950 
z"/>
<path fill="#6CB2E2" opacity="1.000000" stroke="none" 
	d="
M73.097008,165.324493 
	C74.049240,163.807343 70.469429,159.962463 75.808037,161.194931 
	C79.886879,164.718094 83.434616,167.833191 86.982353,170.948288 
	C86.544167,170.940842 86.105972,170.933395 85.156799,170.673279 
	C84.069595,170.338852 83.493378,170.257095 82.917168,170.175323 
	C79.704216,168.657120 76.491264,167.138931 73.097008,165.324493 
z"/>
<path fill="#C7D6E5" opacity="1.000000" stroke="none" 
	d="
M89.962105,154.516052 
	C95.790810,158.047607 95.544243,164.463470 97.283112,170.332428 
	C95.344643,170.948456 93.406303,171.168732 91.100494,170.843384 
	C90.533478,169.757965 90.333946,169.218124 90.507690,168.765137 
	C91.384346,167.770767 92.441551,166.605682 92.292755,165.623230 
	C91.727142,161.888840 90.771774,158.213486 89.962105,154.516052 
z"/>
<path fill="#D6E1EC" opacity="1.000000" stroke="none" 
	d="
M59.947876,100.016800 
	C58.743233,95.137497 57.643063,90.228333 56.262959,85.399170 
	C55.902821,84.139008 54.670990,83.127975 53.444695,82.041428 
	C53.308075,77.768532 56.215088,80.019257 58.831360,79.999939 
	C59.634056,79.999985 59.810997,79.999435 59.979874,80.399658 
	C59.965096,81.869232 59.958378,82.938034 59.731255,84.168701 
	C59.725166,84.903328 59.939487,85.476082 60.164036,86.429131 
	C60.497139,88.814514 60.820015,90.819603 60.876068,93.028465 
	C60.205856,94.600937 58.426003,96.666115 62.075279,96.359955 
	C62.172829,97.400635 62.211811,98.095154 61.953430,98.925751 
	C61.086670,99.380150 60.517273,99.698471 59.947876,100.016800 
z"/>
<path fill="#CEE6F4" opacity="1.000000" stroke="none" 
	d="
M37.663239,151.249023 
	C38.742817,152.506363 39.593269,153.991302 40.699608,155.923019 
	C42.199818,153.372833 43.479507,151.197495 45.522308,149.000763 
	C46.873341,148.996475 47.461254,149.013550 48.049171,149.030640 
	C47.346394,151.031799 46.851723,153.140244 45.888988,155.007370 
	C44.641037,157.427689 44.605972,159.381393 47.138214,161.332443 
	C41.692856,160.659409 38.736141,157.614380 37.663239,151.249023 
z"/>
<path fill="#CEE6F4" opacity="1.000000" stroke="none" 
	d="
M125.070816,149.396545 
	C121.940834,152.866287 118.810844,156.336014 115.361389,159.903809 
	C114.214928,159.971161 113.387939,159.940445 112.150887,159.822769 
	C115.487152,155.042450 119.233482,150.349075 123.005280,145.237305 
	C123.030746,144.818893 123.089989,144.709778 123.447296,144.873993 
	C124.226669,146.490997 124.648743,147.943771 125.070816,149.396545 
z"/>
<path fill="#CCD7E3" opacity="1.000000" stroke="none" 
	d="
M165.146729,188.863922 
	C161.163788,190.352768 157.476547,191.658371 153.424744,193.013855 
	C153.045242,192.286255 153.030319,191.508759 153.014801,190.341827 
	C156.512054,188.516144 160.009872,187.079910 164.103607,185.255035 
	C166.100128,184.219254 167.500717,183.572098 168.998749,182.987335 
	C169.096191,183.049713 169.283417,183.185715 169.283417,183.185715 
	C168.003082,185.017365 166.722748,186.849014 165.146729,188.863922 
z"/>
<path fill="#8BA0C3" opacity="1.000000" stroke="none" 
	d="
M218.705048,121.844452 
	C219.413345,124.325745 220.121643,126.807030 220.541214,129.795624 
	C219.548431,130.526245 218.844376,130.749542 218.089020,130.588440 
	C217.483200,128.273056 216.928696,126.342056 216.085541,123.405891 
	C214.242676,127.997040 212.809158,131.568405 211.078308,135.108917 
	C210.177353,135.045914 209.573730,135.013763 209.019073,134.621216 
	C210.804749,130.135742 212.541489,126.010635 214.648041,121.894653 
	C216.246933,121.883987 217.475983,121.864220 218.705048,121.844452 
z"/>
<path fill="#CCD7E3" opacity="1.000000" stroke="none" 
	d="
M142.840454,168.550140 
	C139.193771,169.481720 135.551575,170.074448 131.231430,170.777527 
	C131.819641,171.889969 132.426254,173.037216 133.108795,174.532272 
	C131.872879,173.668167 130.340042,172.616364 129.312546,171.198410 
	C128.325363,169.836060 127.861549,168.094467 127.174789,166.146576 
	C131.646057,166.166763 136.115891,166.509125 140.569321,167.000153 
	C141.362732,167.087646 142.088135,167.791855 142.840454,168.550140 
z"/>
<path fill="#8BA0C3" opacity="1.000000" stroke="none" 
	d="
M192.692078,78.557938 
	C193.367172,77.477165 194.116486,76.759048 195.211823,75.835556 
	C198.483643,81.499771 201.409424,87.369370 204.182343,93.605545 
	C203.200302,93.345490 202.142776,92.877197 201.580048,92.065765 
	C198.573990,87.731308 195.691528,83.311127 192.692078,78.557938 
z"/>
<path fill="#C2DFF0" opacity="1.000000" stroke="none" 
	d="
M90.056908,61.337502 
	C81.841721,65.572166 73.236473,69.700081 64.265984,73.799179 
	C64.242645,73.232300 64.459404,72.416176 64.945091,72.197601 
	C73.165855,68.497948 81.420044,64.872566 90.056908,61.337502 
z"/>
<path fill="#385E9E" opacity="1.000000" stroke="none" 
	d="
M218.752518,121.533966 
	C217.475983,121.864220 216.246933,121.883987 214.632751,121.563385 
	C213.529480,120.449326 212.811340,119.675644 212.104202,118.625397 
	C212.148987,117.983955 212.182755,117.619072 212.352585,116.962097 
	C212.504776,116.455788 212.520889,116.241570 212.720398,115.739029 
	C213.274139,114.106575 213.644501,112.762428 214.014847,111.418289 
	C215.687683,114.024193 217.360519,116.630096 219.069122,119.624054 
	C219.003250,120.415901 218.901611,120.819687 218.752518,121.533966 
z"/>
<path fill="#CEDEEC" opacity="1.000000" stroke="none" 
	d="
M90.134415,168.678299 
	C90.333946,169.218124 90.533478,169.757965 90.865456,170.552734 
	C89.776512,171.030258 88.555122,171.252823 87.158043,171.211838 
	C83.434616,167.833191 79.886879,164.718094 76.122726,161.347275 
	C76.291115,160.724655 76.675926,160.357758 77.556885,159.787933 
	C82.080170,162.616104 86.107292,165.647202 90.134415,168.678299 
z"/>
<path fill="#97AECE" opacity="1.000000" stroke="none" 
	d="
M153.227600,54.846893 
	C153.155807,53.936623 153.470032,53.059460 154.121918,52.037033 
	C158.099014,53.848225 161.738480,55.804672 165.699463,57.877266 
	C166.020981,58.962402 166.020981,59.931389 166.020981,61.292728 
	C161.597839,59.006634 157.605743,56.943317 153.227600,54.846893 
z"/>
<path fill="#5775AC" opacity="1.000000" stroke="none" 
	d="
M198.994781,165.994202 
	C198.994797,165.994202 198.677307,166.265457 198.265808,166.161438 
	C197.604416,165.711868 197.354538,165.366318 197.349731,164.827850 
	C197.393860,163.419678 197.192932,162.204453 197.230301,160.920700 
	C197.468597,160.852173 197.945984,160.717941 198.092087,161.051544 
	C201.525818,162.889496 204.855545,164.642517 207.435944,160.022980 
	C208.525894,160.130463 209.263855,160.103088 210.155640,160.406067 
	C210.528122,162.153549 210.746750,163.570663 210.670212,165.146606 
	C208.853180,165.285751 207.331299,165.266068 205.809433,165.246399 
	C204.469131,165.210999 203.128815,165.175583 201.262177,164.775742 
	C200.155487,164.938934 199.575134,165.466568 198.994781,165.994202 
z"/>
<path fill="#9BAECD" opacity="1.000000" stroke="none" 
	d="
M210.965378,164.987793 
	C210.746750,163.570663 210.528122,162.153549 210.177673,160.049927 
	C212.784760,155.490707 215.523636,151.617950 218.681580,147.809311 
	C219.381165,147.907684 219.661713,147.941956 219.942261,147.976212 
	C218.288055,150.787369 216.471054,153.518036 215.029404,156.434296 
	C213.799072,158.923050 213.000015,161.625031 211.700684,164.609192 
	C211.391159,164.985687 210.965378,164.987793 210.965378,164.987793 
z"/>
<path fill="#9BAECD" opacity="1.000000" stroke="none" 
	d="
M218.140320,130.972839 
	C218.844376,130.749542 219.548431,130.526245 220.504730,130.180801 
	C221.435120,133.489639 222.113281,136.920593 222.408463,140.755630 
	C220.644867,141.387207 219.264236,141.614685 217.929642,141.471680 
	C218.030548,137.725067 218.085434,134.348953 218.140320,130.972839 
z"/>
<path fill="#C2DFF0" opacity="1.000000" stroke="none" 
	d="
M59.987938,79.998886 
	C59.810997,79.999435 59.634056,79.999985 59.191093,79.992844 
	C59.818008,78.049438 60.710941,76.113731 61.984619,74.226669 
	C64.740959,75.340576 67.116554,76.405838 69.587074,77.987701 
	C69.156204,79.272278 68.630417,80.040253 67.686928,80.867722 
	C64.842133,80.617767 62.415035,80.308327 59.987938,79.998886 
z"/>
<path fill="#88A1CC" opacity="1.000000" stroke="none" 
	d="
M185.871201,177.349274 
	C183.873398,177.213425 181.875595,177.077560 179.257446,176.684845 
	C178.079468,176.263382 177.521851,176.098785 176.957733,175.678833 
	C176.940720,175.083420 176.930206,174.743347 177.295380,174.309631 
	C180.499481,173.808411 183.327881,173.400833 186.556976,172.970139 
	C187.484131,172.834915 188.010574,172.722809 188.786499,172.673706 
	C189.345490,172.884460 189.654999,173.032227 189.959595,173.531342 
	C189.557617,174.665756 189.160553,175.448807 188.494293,176.380951 
	C187.440475,176.803131 186.655838,177.076202 185.871201,177.349274 
z"/>
<path fill="#6181AF" opacity="1.000000" stroke="none" 
	d="
M176.919693,174.403259 
	C176.930206,174.743347 176.940720,175.083420 176.672501,175.744644 
	C175.931931,176.390060 175.470093,176.714325 175.008255,177.038605 
	C174.462723,177.216385 173.917206,177.394165 172.843338,177.793243 
	C171.856949,178.007584 171.398880,178.000641 170.699158,177.596954 
	C170.772049,174.533936 171.086594,171.867645 171.680237,169.168671 
	C172.522110,169.156006 173.084915,169.176010 173.740082,169.545227 
	C174.861542,171.397369 175.890610,172.900314 176.919693,174.403259 
z"/>
<path fill="#97AECE" opacity="1.000000" stroke="none" 
	d="
M212.283905,105.609467 
	C211.538788,106.195488 210.044739,106.834183 209.890350,106.597809 
	C208.464554,104.415054 207.270187,102.081146 206.245560,99.261200 
	C206.777222,98.344330 207.071854,97.957458 207.366486,97.570587 
	C208.963120,100.132469 210.559753,102.694351 212.283905,105.609467 
z"/>
<path fill="#C2D8EA" opacity="1.000000" stroke="none" 
	d="
M36.684319,100.063522 
	C35.385773,105.036713 33.726856,110.038132 31.781670,115.242004 
	C33.104916,110.326889 34.714436,105.209312 36.684319,100.063522 
z"/>
<path fill="#9EB0CD" opacity="1.000000" stroke="none" 
	d="
M188.763489,176.231857 
	C189.160553,175.448807 189.557617,174.665756 190.290375,173.443024 
	C192.202621,171.509827 193.779175,170.016296 195.622772,168.728607 
	C196.067520,169.072098 196.245193,169.209763 196.422867,169.347427 
	C196.335739,169.721786 196.248611,170.096161 195.775269,170.880066 
	C194.924942,172.180191 194.460831,173.070755 193.996735,173.961334 
	C193.102676,175.444931 192.208618,176.928528 190.809189,178.656540 
	C189.790375,178.011261 189.276932,177.121552 188.763489,176.231857 
z"/>
<path fill="#CEE6F4" opacity="1.000000" stroke="none" 
	d="
M31.152782,128.376892 
	C31.998549,127.764557 32.784622,127.506157 33.806316,127.561905 
	C35.302898,129.407379 36.563862,130.938675 37.824829,132.469986 
	C35.713955,132.785706 33.603088,133.101425 31.161015,133.729156 
	C26.996439,132.076645 32.375626,130.568863 31.152782,128.376892 
z"/>
<path fill="#D6E1EC" opacity="1.000000" stroke="none" 
	d="
M49.454067,84.918228 
	C46.796600,87.943306 43.789913,90.986008 40.455292,94.115067 
	C43.119854,91.112907 46.112350,88.024384 49.454067,84.918228 
z"/>
<path fill="#CEE6F4" opacity="1.000000" stroke="none" 
	d="
M32.340782,138.877792 
	C33.970993,141.735565 35.488838,144.991684 37.002174,148.624817 
	C35.407913,145.759918 33.818165,142.518036 32.340782,138.877792 
z"/>
<path fill="#385E9E" opacity="1.000000" stroke="none" 
	d="
M217.883621,141.842178 
	C219.264236,141.614685 220.644867,141.387207 222.379913,141.172791 
	C222.683334,142.324066 222.632324,143.462280 221.933426,144.769287 
	C220.355362,144.929550 219.425201,144.921005 218.244141,144.815628 
	C217.635529,144.702988 217.277802,144.687164 216.962402,144.219711 
	C217.004944,143.166504 217.005157,142.564896 217.229004,141.962448 
	C217.452621,141.961594 217.883621,141.842178 217.883621,141.842178 
z"/>
<path fill="#D6E1EC" opacity="1.000000" stroke="none" 
	d="
M147.507233,49.962864 
	C147.661926,50.378212 147.380676,50.792923 146.971527,51.433651 
	C144.494186,51.771702 142.144760,51.883736 139.363464,51.875763 
	C141.644821,51.157921 144.358063,50.560074 147.507233,49.962864 
z"/>
<path fill="#D6E1EC" opacity="1.000000" stroke="none" 
	d="
M153.933258,50.705624 
	C152.220032,50.685490 150.489487,50.288357 148.362885,49.916248 
	C150.189835,46.384598 152.111786,47.451836 153.933258,50.705624 
z"/>
<path fill="#A5B6CF" opacity="1.000000" stroke="none" 
	d="
M210.670212,165.146606 
	C210.965378,164.987793 211.391159,164.985687 211.603058,164.981567 
	C210.547516,169.556213 208.281891,167.523575 205.939575,165.545654 
	C207.331299,165.266068 208.853180,165.285751 210.670212,165.146606 
z"/>
<path fill="#D6E1EC" opacity="1.000000" stroke="none" 
	d="
M188.494293,176.380951 
	C189.276932,177.121552 189.790375,178.011261 190.642944,178.939560 
	C188.550430,182.482574 187.510345,179.232086 185.966476,177.656921 
	C186.655838,177.076202 187.440475,176.803131 188.494293,176.380951 
z"/>
<path fill="#D6E1EC" opacity="1.000000" stroke="none" 
	d="
M170.940826,177.993698 
	C171.398880,178.000641 171.856949,178.007584 172.661957,178.018860 
	C171.971008,179.667297 170.933121,181.311386 169.589325,183.070587 
	C169.283417,183.185715 169.096191,183.049713 169.055191,182.644897 
	C169.672211,180.809341 170.330231,179.378632 170.991379,177.974976 
	C170.994507,178.002029 170.940826,177.993698 170.940826,177.993698 
z"/>
<path fill="#CEE6F4" opacity="1.000000" stroke="none" 
	d="
M106.205017,162.950241 
	C105.299637,161.894745 104.394249,160.839233 103.477081,159.419006 
	C104.462364,159.093185 105.459427,159.132111 106.711929,159.451569 
	C106.993202,160.544449 107.019043,161.356812 106.855347,162.574463 
	C106.665810,162.979767 106.205017,162.950241 106.205017,162.950241 
z"/>
<path fill="#B3CDE1" opacity="1.000000" stroke="none" 
	d="
M115.980095,164.524445 
	C117.440010,164.652466 119.011658,165.083740 120.791733,165.794678 
	C119.364052,165.658829 117.727943,165.243271 115.980095,164.524445 
z"/>
<path fill="#CCD7E3" opacity="1.000000" stroke="none" 
	d="
M157.220032,200.044861 
	C158.533295,200.837662 159.796356,201.999588 161.156464,203.476929 
	C159.892273,202.666214 158.531052,201.540085 157.220032,200.044861 
z"/>
<path fill="#8BA0C3" opacity="1.000000" stroke="none" 
	d="
M207.279785,97.260307 
	C207.071854,97.957458 206.777222,98.344330 206.165985,98.913971 
	C205.154205,97.618385 204.459045,96.140045 203.898895,94.320282 
	C205.086975,94.969246 206.140015,95.959641 207.279785,97.260307 
z"/>
<path fill="#C2D8EA" opacity="1.000000" stroke="none" 
	d="
M117.123611,54.580711 
	C116.043900,54.632576 114.897263,54.353813 113.397141,54.041046 
	C114.213486,53.357395 115.383316,52.707752 116.945450,52.173882 
	C117.244057,52.943127 117.150368,53.596603 117.123611,54.580711 
z"/>
<path fill="#8BA0C3" opacity="1.000000" stroke="none" 
	d="
M218.495026,144.912445 
	C219.425201,144.921005 220.355362,144.929550 221.652634,144.976776 
	C221.514359,145.893066 221.009003,146.770660 220.222946,147.812225 
	C219.661713,147.941956 219.381165,147.907684 218.812134,147.539902 
	C218.514099,146.441727 218.504562,145.677094 218.495026,144.912445 
z"/>
<path fill="#F5F7FA" opacity="1.000000" stroke="none" 
	d="
M179.945114,66.517914 
	C178.439499,66.100159 176.868561,65.347557 175.167297,64.286430 
	C176.651245,64.712967 178.265503,65.448021 179.945114,66.517914 
z"/>
<path fill="#D6E1EC" opacity="1.000000" stroke="none" 
	d="
M175.231705,177.288147 
	C175.470093,176.714325 175.931931,176.390060 176.679001,175.999969 
	C177.521851,176.098785 178.079468,176.263382 178.828049,176.646271 
	C177.831055,177.088943 176.643112,177.313324 175.231705,177.288147 
z"/>
<path fill="#CCD7E3" opacity="1.000000" stroke="none" 
	d="
M164.547104,200.018555 
	C164.310562,199.213669 164.372223,198.328430 164.688171,197.216766 
	C164.910065,197.972946 164.877686,198.955597 164.547104,200.018555 
z"/>
<path fill="#9EB0CD" opacity="1.000000" stroke="none" 
	d="
M197.104645,165.020782 
	C197.354538,165.366318 197.604416,165.711868 198.094177,166.280365 
	C197.848022,167.326935 197.361969,168.150543 196.649384,169.160797 
	C196.245193,169.209763 196.067520,169.072098 195.734070,168.395767 
	C195.699753,166.906265 195.821198,165.955444 196.233154,165.007202 
	C196.717331,165.013458 196.910980,165.017120 197.104645,165.020782 
z"/>
<path fill="#D6E8F4" opacity="1.000000" stroke="none" 
	d="
M106.196167,163.328888 
	C106.205017,162.950241 106.665810,162.979767 106.897728,162.975494 
	C106.950836,163.957687 106.772026,164.944153 106.264633,165.944687 
	C106.019814,165.208344 106.103569,164.457947 106.196167,163.328888 
z"/>
<path fill="#D6E8F4" opacity="1.000000" stroke="none" 
	d="
M30.512749,119.010056 
	C30.704453,119.814247 30.588242,120.676712 30.233658,121.769234 
	C30.065136,121.022308 30.134985,120.045319 30.512749,119.010056 
z"/>
<path fill="#CEE6F4" opacity="1.000000" stroke="none" 
	d="
M53.970520,162.521011 
	C54.778881,162.334595 55.673542,162.439468 56.779434,162.819427 
	C56.012718,163.000443 55.034771,162.906372 53.970520,162.521011 
z"/>
<path fill="#A5B6CF" opacity="1.000000" stroke="none" 
	d="
M194.305786,173.853821 
	C194.460831,173.070755 194.924942,172.180191 195.671280,171.149506 
	C195.507294,171.921677 195.061066,172.833984 194.305786,173.853821 
z"/>
<path fill="#CCD7E3" opacity="1.000000" stroke="none" 
	d="
M163.186371,203.935211 
	C163.083618,203.383499 163.284180,202.855362 163.712158,202.158737 
	C163.789612,202.646423 163.639633,203.302597 163.186371,203.935211 
z"/>
<path fill="#CCD7E3" opacity="1.000000" stroke="none" 
	d="
M152.763947,193.056091 
	C153.104355,193.474533 153.139862,193.891998 153.137787,194.621918 
	C152.573135,194.726685 152.046097,194.518951 151.519058,194.311234 
	C151.832397,193.892532 152.145737,193.473816 152.763947,193.056091 
z"/>
<path fill="#CEDEEC" opacity="1.000000" stroke="none" 
	d="
M82.975952,170.450073 
	C83.493378,170.257095 84.069595,170.338852 84.828430,170.657867 
	C84.352280,170.838348 83.693504,170.781586 82.975952,170.450073 
z"/>
<path fill="#A5B6CF" opacity="1.000000" stroke="none" 
	d="
M199.299988,165.995255 
	C199.575134,165.466568 200.155487,164.938934 200.867111,164.695312 
	C200.533997,165.318329 200.069611,165.657318 199.299988,165.995255 
z"/>
<path fill="#97AECE" opacity="1.000000" stroke="none" 
	d="
M167.613251,59.076706 
	C167.825378,59.720615 167.825378,60.353470 167.825378,60.986328 
	C167.653915,61.010384 167.482452,61.034439 167.310974,61.058495 
	C167.217651,60.559322 167.124329,60.060146 167.010529,59.259697 
	C166.990036,58.958420 167.401123,59.065655 167.613251,59.076706 
z"/>
<path fill="#B3CDE1" opacity="1.000000" stroke="none" 
	d="
M114.032898,162.478516 
	C113.603477,162.606033 113.174049,162.733551 112.744629,162.861053 
	C112.908157,162.523071 113.071678,162.185074 113.593994,161.949234 
	C113.952774,162.051392 114.032898,162.478500 114.032898,162.478516 
z"/>
<path fill="#B3CDE1" opacity="1.000000" stroke="none" 
	d="
M114.432709,160.927795 
	C114.587341,161.121155 114.550331,161.409515 114.287422,162.077362 
	C114.061516,162.456863 114.054199,162.430283 114.043549,162.454391 
	C114.032898,162.478500 113.952774,162.051392 113.830276,161.869080 
	C113.845520,161.433319 114.023277,161.211990 114.432709,160.927795 
z"/>
<path fill="#F3F8FC" opacity="1.000000" stroke="none" 
	d="
M68.104622,80.808228 
	C68.630417,80.040253 69.156204,79.272278 69.842590,78.250183 
	C70.730400,78.078621 71.457626,78.161171 72.631149,78.635269 
	C74.046257,79.044960 75.015068,79.063095 75.983871,79.081230 
	C77.031166,79.150146 78.078461,79.219063 79.603989,79.682968 
	C81.045982,80.098129 82.009750,80.118317 82.973518,80.138504 
	C85.429962,79.830025 87.886406,79.521538 90.674774,79.108093 
	C92.309525,79.082535 93.612366,79.161942 95.413933,79.529999 
	C97.942070,79.872902 99.971474,79.927155 102.248413,80.256149 
	C103.983086,80.729172 105.470222,80.927444 106.977356,81.390457 
	C107.013054,81.831482 107.028770,82.007767 106.677414,82.313576 
	C103.932251,82.659157 101.554169,82.875214 98.773834,83.053787 
	C97.589989,84.375725 96.808380,85.735153 95.783066,87.082703 
	C95.539368,87.070831 95.052956,87.031769 94.628662,87.028275 
	C93.324547,87.635094 92.444717,88.245392 91.254700,88.616852 
	C88.605301,89.569153 86.266083,90.760292 83.662262,91.817352 
	C82.889816,91.086487 82.381973,90.489700 82.035629,89.597725 
	C83.447212,87.900932 84.697311,86.499336 86.681664,84.274498 
	C79.781677,82.987038 73.943153,81.897629 68.104622,80.808228 
z"/>
<path fill="#C2DFF0" opacity="1.000000" stroke="none" 
	d="
M75.768677,78.805206 
	C75.015068,79.063095 74.046257,79.044960 72.977646,78.755997 
	C73.769722,78.499840 74.661606,78.514511 75.768677,78.805206 
z"/>
<path fill="#C2DFF0" opacity="1.000000" stroke="none" 
	d="
M82.756470,79.868240 
	C82.009750,80.118317 81.045982,80.098129 79.973694,79.819580 
	C80.756592,79.573463 81.648010,79.585716 82.756470,79.868240 
z"/>
<path fill="#F5F7FA" opacity="1.000000" stroke="none" 
	d="
M183.370178,95.062592 
	C183.370178,95.062592 183.475327,95.014252 183.586731,95.365738 
	C183.766678,96.484688 183.835236,97.252144 183.892151,98.405792 
	C181.555893,105.483444 179.231247,112.174904 176.595764,118.758972 
	C175.234604,119.160843 174.184250,119.670105 172.851959,120.162903 
	C172.382599,120.128807 172.195160,120.111183 171.971497,119.727066 
	C171.614731,117.935982 171.294189,116.511398 171.339081,115.062424 
	C171.841797,113.984451 172.405365,112.752884 172.051147,111.904510 
	C167.988434,102.173943 163.786209,92.501640 159.741287,82.871277 
	C159.861404,82.928757 160.101257,83.044533 160.446854,83.076485 
	C162.469254,83.742310 164.146057,84.376183 166.020142,85.293190 
	C168.804947,87.265450 171.303024,89.117493 174.003815,90.600372 
	C177.030228,92.262062 180.240128,93.589630 183.370178,95.062592 
z"/>
<path fill="#FAFBFC" opacity="1.000000" stroke="none" 
	d="
M166.011902,79.101891 
	C173.716812,78.817345 181.421738,78.532791 189.544006,78.359344 
	C189.945480,84.162605 188.558105,89.273643 183.127991,92.843468 
	C177.633804,89.709915 172.831421,86.697708 167.947388,83.375404 
	C167.247803,81.744164 166.629852,80.423027 166.011902,79.101891 
z"/>
<path fill="#9BAECD" opacity="1.000000" stroke="none" 
	d="
M168.029053,83.685501 
	C172.831421,86.697708 177.633804,89.709915 182.758240,92.848083 
	C183.105560,93.444435 183.130829,93.914841 183.263123,94.723915 
	C180.240128,93.589630 177.030228,92.262062 174.003815,90.600372 
	C171.303024,89.117493 168.804947,87.265450 166.236267,85.043015 
	C166.846420,84.234970 167.437744,83.960236 168.029053,83.685501 
z"/>
<path fill="#88A1CC" opacity="1.000000" stroke="none" 
	d="
M183.903793,98.019608 
	C183.835236,97.252144 183.766678,96.484688 183.636444,95.336136 
	C188.734543,98.408302 193.894318,101.861557 199.028259,105.666122 
	C199.002411,106.017441 199.012085,105.980804 198.637619,106.024551 
	C194.504913,104.363480 190.746658,102.658653 186.848297,100.658081 
	C185.773392,99.581421 184.838593,98.800514 183.903793,98.019608 
z"/>
<path fill="#97AECE" opacity="1.000000" stroke="none" 
	d="
M198.983841,106.023209 
	C202.289413,107.667526 205.613541,109.306084 208.966827,111.732559 
	C208.921249,112.848969 208.846512,113.177444 208.445007,113.359421 
	C205.082855,110.802208 202.047470,108.391510 199.012085,105.980804 
	C199.012085,105.980804 199.002411,106.017441 198.983841,106.023209 
z"/>
<path fill="#9EB0CD" opacity="1.000000" stroke="none" 
	d="
M208.771790,113.505920 
	C208.846512,113.177444 208.921249,112.848969 209.112030,112.025848 
	C210.824997,111.312630 212.421906,111.094055 214.016830,111.146881 
	C213.644501,112.762428 213.274139,114.106575 212.377289,115.678078 
	C210.824463,115.105606 209.798126,114.305763 208.771790,113.505920 
z"/>
<path fill="#F7F9FB" opacity="1.000000" stroke="none" 
	d="
M59.932693,100.388412 
	C60.517273,99.698471 61.086670,99.380150 61.979965,99.148895 
	C62.303864,99.235977 62.333557,99.680321 62.250576,99.997284 
	C62.633682,100.920631 63.099766,101.527023 63.659164,102.512115 
	C63.830231,103.928772 63.907982,104.966728 63.757233,106.185059 
	C64.963905,107.561989 66.399063,108.758560 67.869659,110.358658 
	C67.906456,111.840408 67.907799,112.918640 67.664955,114.177261 
	C66.357109,115.522484 65.293449,116.687309 64.007668,117.646408 
	C63.207661,117.393791 62.629768,117.346901 62.051880,117.300011 
	C60.795437,115.573349 59.538994,113.846695 57.913429,111.997314 
	C57.544312,111.874588 57.800709,111.446373 57.967716,111.260849 
	C59.070827,109.556229 60.006931,108.037132 60.860733,106.144012 
	C60.491455,104.099998 60.204479,102.430016 59.932693,100.388412 
z"/>
<path fill="#EAF2F8" opacity="1.000000" stroke="none" 
	d="
M100.937561,157.244934 
	C97.687225,154.537079 94.436874,151.829208 91.328300,149.239471 
	C91.228844,149.533752 90.741508,150.975800 89.793533,152.657150 
	C85.971466,146.321655 82.610023,139.746826 79.775421,133.097748 
	C80.994576,132.910263 81.686913,132.797043 82.722885,132.847046 
	C87.951904,133.995071 87.195877,128.402740 90.441330,127.018829 
	C91.614037,127.024773 92.395889,127.031830 93.091484,127.386703 
	C91.450363,130.406326 89.895500,133.078125 87.903587,136.500946 
	C94.644806,137.562347 99.990303,138.443939 105.348946,139.236649 
	C110.860992,140.052048 116.385872,140.780746 121.964050,141.779449 
	C122.350639,142.345184 122.678307,142.678879 123.010887,143.297409 
	C123.040527,143.958099 123.065254,144.333939 123.089989,144.709778 
	C123.089989,144.709778 123.030746,144.818893 123.023285,144.880096 
	C114.852875,143.839005 106.692352,142.718292 98.525513,141.645676 
	C96.078018,141.324219 93.612892,141.137009 89.513458,140.722092 
	C94.349098,145.896469 98.187828,150.004105 101.965553,154.748260 
	C101.582222,156.004822 101.259888,156.624878 100.937561,157.244934 
z"/>
<path fill="#CEE6F4" opacity="1.000000" stroke="none" 
	d="
M101.088791,157.523636 
	C101.259888,156.624878 101.582222,156.004822 102.069077,155.070129 
	C102.675209,155.872330 103.116829,156.989182 103.245239,158.312073 
	C102.368027,158.279541 101.804024,158.040924 101.088791,157.523636 
z"/>
<path fill="#F3F8FC" opacity="1.000000" stroke="none" 
	d="
M48.193741,148.714050 
	C47.461254,149.013550 46.873341,148.996475 45.843796,148.954422 
	C45.814419,147.671555 46.139084,146.376404 46.655315,145.162735 
	C48.214939,141.496048 47.067833,139.065491 43.206367,137.101562 
	C43.406013,135.921127 43.808208,135.337051 44.539078,134.931885 
	C48.391876,136.984741 50.772106,136.245728 51.943050,132.207413 
	C52.292313,131.002884 53.146130,129.944672 54.355564,128.913849 
	C55.336288,129.031235 55.730213,129.054214 56.032532,129.478775 
	C55.223202,133.893845 50.990917,137.633224 54.994591,142.014893 
	C54.465130,142.625656 53.935665,143.236404 53.127434,143.990204 
	C51.345211,145.554657 49.841759,146.976059 48.193741,148.714050 
z"/>
<path fill="#3F9FE1" opacity="1.000000" stroke="none" 
	d="
M115.596947,66.754410 
	C115.030807,63.956520 114.464668,61.158634 113.937546,57.911777 
	C123.412460,61.836407 132.848831,66.208992 142.283813,70.584557 
	C143.933762,71.349747 145.577896,72.127502 147.602325,73.286819 
	C147.949097,74.098282 147.918243,74.522377 147.887390,74.946480 
	C140.514099,75.876335 133.140808,76.806190 125.039749,77.798798 
	C120.264786,78.983932 118.160728,77.258377 117.372719,73.307175 
	C116.931114,71.092941 116.198463,68.936752 115.596947,66.754410 
z"/>
<path fill="#4583BB" opacity="1.000000" stroke="none" 
	d="
M125.115852,80.342056 
	C131.778290,79.880020 138.440720,79.417984 145.514038,79.386116 
	C145.776047,81.308014 145.627182,82.799751 145.298065,84.585632 
	C138.483994,89.014351 131.850189,93.148911 124.986923,96.976868 
	C123.535957,96.438866 122.314445,96.207474 121.189278,95.725998 
	C121.518867,94.994926 121.752106,94.513939 122.378654,94.031860 
	C122.983879,92.856430 123.574265,91.598152 123.335960,90.523674 
	C122.652489,87.442047 121.633324,84.434868 120.731064,81.346893 
	C122.636772,80.910172 123.876312,80.626114 125.115852,80.342056 
z"/>
<path fill="#DDEAF4" opacity="1.000000" stroke="none" 
	d="
M125.082428,79.938950 
	C123.876312,80.626114 122.636772,80.910172 120.731064,81.346893 
	C121.633324,84.434868 122.652489,87.442047 123.335960,90.523674 
	C123.574265,91.598152 122.983879,92.856430 122.244537,93.681976 
	C117.626785,82.091942 117.626785,82.091942 107.044487,82.184052 
	C107.028770,82.007767 107.013054,81.831482 107.214317,81.235489 
	C107.658714,80.321449 107.886139,79.827118 108.541946,79.263153 
	C116.373016,78.690010 116.357628,78.694695 114.169762,71.505196 
	C113.740768,70.095497 113.481918,68.634026 113.144592,67.196426 
	C113.551773,67.120811 113.958954,67.045204 114.981537,66.862000 
	C116.198463,68.936752 116.931114,71.092941 117.372719,73.307175 
	C118.160728,77.258377 120.264786,78.983932 124.660294,77.891388 
	C125.022087,78.459419 125.035545,78.997635 125.082428,79.938950 
z"/>
<path fill="#3C76AE" opacity="1.000000" stroke="none" 
	d="
M145.478317,84.291489 
	C145.627182,82.799751 145.776047,81.308014 145.969177,79.476715 
	C147.427124,78.783485 148.840836,78.429817 150.654434,78.389008 
	C151.146194,79.157349 151.238052,79.612854 151.202103,80.346207 
	C151.009521,81.024529 150.944763,81.425003 150.565521,81.945717 
	C148.660126,82.807800 147.069214,83.549644 145.478317,84.291489 
z"/>
<path fill="#B3CDE1" opacity="1.000000" stroke="none" 
	d="
M148.206085,74.951035 
	C147.918243,74.522377 147.949097,74.098282 147.952667,73.355980 
	C148.471481,73.268501 149.017563,73.499222 149.563644,73.729942 
	C149.217361,74.138496 148.871078,74.547050 148.206085,74.951035 
z"/>
<path fill="#88A1CC" opacity="1.000000" stroke="none" 
	d="
M151.329926,80.068359 
	C151.238052,79.612854 151.146194,79.157349 151.021759,78.354996 
	C151.381866,77.926170 151.774536,77.844185 152.466003,77.778336 
	C152.814697,78.010551 152.864624,78.226654 152.806091,78.989952 
	C152.241745,79.714211 151.785828,79.891281 151.329926,80.068359 
z"/>
<path fill="#7EC0EB" opacity="1.000000" stroke="none" 
	d="
M53.768768,128.819412 
	C53.146130,129.944672 52.292313,131.002884 51.943050,132.207413 
	C50.772106,136.245728 48.391876,136.984741 44.449020,134.681335 
	C43.125797,134.108444 42.221306,133.965012 41.034000,133.694275 
	C40.182060,133.356201 39.612938,133.145447 39.064453,132.810181 
	C39.085091,132.685654 38.939411,132.479507 38.939411,132.479507 
	C38.605518,132.478210 38.271622,132.476913 37.881279,132.472809 
	C36.563862,130.938675 35.302898,129.407379 34.115231,127.490028 
	C39.492138,124.482819 44.790195,121.850319 50.101940,119.245735 
	C52.407749,118.115082 54.741714,117.041862 58.044323,115.477760 
	C57.405552,118.747414 56.984604,120.902122 56.557854,123.601273 
	C56.395542,124.594398 56.239033,125.043083 55.723198,125.600784 
	C54.832172,126.746346 54.300468,127.782875 53.768768,128.819412 
z"/>
<path fill="#CEE6F4" opacity="1.000000" stroke="none" 
	d="
M41.316818,133.821594 
	C42.221306,133.965012 43.125797,134.108444 44.120346,134.502426 
	C43.808208,135.337051 43.406013,135.921127 42.936546,136.865967 
	C40.806225,136.191284 36.896774,137.102692 38.499615,132.572525 
	C38.939411,132.479507 39.085091,132.685654 39.073452,133.130981 
	C39.813480,133.658066 40.565147,133.739822 41.316818,133.821594 
z"/>
<path fill="#F7F9FB" opacity="1.000000" stroke="none" 
	d="
M171.401154,169.201370 
	C171.086594,171.867645 170.772049,174.533936 170.699158,177.596954 
	C170.940826,177.993698 170.994507,178.002029 170.618820,177.853790 
	C168.153488,178.557556 166.063843,179.409592 163.974197,180.261627 
	C160.014084,177.475815 156.053986,174.690002 151.644485,171.490601 
	C150.135834,170.036530 149.076569,168.996033 148.017319,167.955536 
	C148.017319,167.955536 148.018570,168.007263 148.178925,167.695801 
	C150.220566,165.911896 152.101852,164.439484 154.344238,162.961533 
	C158.861801,159.897781 163.018265,156.839539 167.443329,153.952301 
	C168.590790,154.663071 169.469666,155.202835 170.227661,156.197601 
	C170.538254,160.835526 170.969711,165.018448 171.401154,169.201370 
z"/>
<path fill="#6181AF" opacity="1.000000" stroke="none" 
	d="
M163.983917,180.671906 
	C166.063843,179.409592 168.153488,178.557556 170.615692,177.826721 
	C170.330231,179.378632 169.672211,180.809341 168.957748,182.582504 
	C167.500717,183.572098 166.100128,184.219254 164.392899,185.061050 
	C164.055374,183.864532 164.024490,182.473358 163.983917,180.671906 
z"/>
<path fill="#88A1CC" opacity="1.000000" stroke="none" 
	d="
M147.959290,168.311401 
	C149.076569,168.996033 150.135834,170.036530 151.334610,171.363342 
	C151.131836,171.739777 150.789551,171.829895 149.919678,172.013153 
	C148.895172,170.959930 148.398209,169.813599 147.959290,168.311401 
z"/>
<path fill="#88A1CC" opacity="1.000000" stroke="none" 
	d="
M153.983154,162.967056 
	C152.101852,164.439484 150.220566,165.911896 148.196075,167.676422 
	C148.052902,167.968506 147.782227,168.121582 147.650177,168.196625 
	C146.430420,167.324631 145.342728,166.377609 144.099060,165.110504 
	C143.951782,164.112915 143.960495,163.435364 144.222000,162.366852 
	C144.858307,161.948792 145.241806,161.921707 145.798950,162.231079 
	C146.986633,162.853531 148.099228,163.550812 148.993423,163.336594 
	C150.657639,162.937897 152.194641,162.008301 153.843323,161.715469 
	C153.929077,162.409851 153.956116,162.688461 153.983154,162.967056 
z"/>
<path fill="#88A1CC" opacity="1.000000" stroke="none" 
	d="
M146.849426,169.204041 
	C146.961655,169.594177 146.729584,169.786774 146.193939,169.938446 
	C145.966522,169.989197 145.946518,169.508057 145.977509,169.269638 
	C146.199402,169.053543 146.390320,169.075851 146.849426,169.204041 
z"/>
<path fill="#EEF1F6" opacity="1.000000" stroke="none" 
	d="
M167.947388,83.375404 
	C167.437744,83.960236 166.846420,84.234970 166.038986,84.759880 
	C164.146057,84.376183 162.469254,83.742310 160.387894,82.769730 
	C159.974762,82.223282 159.966171,82.015533 160.285736,81.737671 
	C161.235916,80.536728 161.857895,79.405884 162.479889,78.275040 
	C163.473557,78.458725 164.467224,78.642403 165.736389,78.963989 
	C166.629852,80.423027 167.247803,81.744164 167.947388,83.375404 
z"/>
<path fill="#97AECE" opacity="1.000000" stroke="none" 
	d="
M162.117462,78.211273 
	C161.857895,79.405884 161.235916,80.536728 160.266754,81.436752 
	C159.543808,80.754456 159.168045,80.302979 158.792282,79.851501 
	C158.792282,79.851501 158.898422,79.420265 158.969711,79.209808 
	C159.945679,78.715393 160.850342,78.431450 162.117462,78.211273 
z"/>
<path fill="#5E7BB0" opacity="1.000000" stroke="none" 
	d="
M112.942085,66.941132 
	C113.481918,68.634026 113.740768,70.095497 114.169762,71.505196 
	C116.357628,78.694695 116.373016,78.690010 108.143997,79.142136 
	C105.545410,79.387634 103.773140,79.684517 102.000877,79.981400 
	C99.971474,79.927155 97.942070,79.872902 95.693405,79.428963 
	C99.783852,72.240669 104.093567,65.442078 109.096825,57.549412 
	C110.642502,61.426136 111.691040,64.055984 112.942085,66.941132 
z"/>
<path fill="#5E7BB0" opacity="1.000000" stroke="none" 
	d="
M79.248589,133.172012 
	C82.610023,139.746826 85.971466,146.321655 89.682373,153.011292 
	C90.020889,153.438522 90.012154,153.750992 89.983871,154.289795 
	C90.771774,158.213486 91.727142,161.888840 92.292755,165.623230 
	C92.441551,166.605682 91.384346,167.770767 90.507690,168.765137 
	C86.107292,165.647202 82.080170,162.616104 77.738586,159.429657 
	C75.548019,157.099701 73.671906,154.925125 71.781418,152.001495 
	C70.200455,140.828201 68.633881,130.403931 66.883156,118.754311 
	C71.614349,124.270729 75.431465,128.721375 79.248589,133.172012 
z"/>
<path fill="#468BBD" opacity="1.000000" stroke="none" 
	d="
M56.082520,125.491768 
	C56.239033,125.043083 56.395542,124.594398 56.561939,124.119461 
	C58.306858,122.039772 60.041885,119.986343 61.914398,117.616455 
	C62.629768,117.346901 63.207661,117.393791 64.013260,118.008118 
	C64.639297,120.698112 65.156860,122.806320 65.414284,124.945824 
	C66.298775,132.296814 67.092201,139.658768 67.920319,147.016541 
	C67.783623,147.935974 67.646919,148.855408 67.375656,150.679916 
	C63.121376,147.619583 59.377617,144.926483 55.314224,142.124146 
	C50.990917,137.633224 55.223202,133.893845 56.275574,129.287903 
	C56.434326,127.627556 56.258423,126.559662 56.082520,125.491768 
z"/>
<path fill="#C7D6E5" opacity="1.000000" stroke="none" 
	d="
M68.225998,146.915649 
	C67.092201,139.658768 66.298775,132.296814 65.414284,124.945824 
	C65.156860,122.806320 64.639297,120.698112 64.235382,118.213852 
	C65.293449,116.687309 66.357109,115.522484 67.973419,114.318642 
	C73.143799,120.414368 77.761520,126.549103 82.379242,132.683838 
	C81.686913,132.797043 80.994576,132.910263 79.775421,133.097748 
	C75.431465,128.721375 71.614349,124.270729 66.883156,118.754311 
	C68.633881,130.403931 70.200455,140.828201 71.639557,151.658279 
	C71.016968,150.848328 70.598778,149.592590 69.995850,148.432892 
	C69.671249,147.808533 69.030029,147.348770 68.225998,146.915649 
z"/>
<path fill="#9EB0CD" opacity="1.000000" stroke="none" 
	d="
M158.421005,79.864899 
	C159.168045,80.302979 159.543808,80.754456 159.938568,81.506859 
	C159.966171,82.015533 159.974762,82.223282 160.042297,82.737778 
	C160.101257,83.044533 159.861404,82.928757 159.515381,82.809830 
	C158.746201,83.196632 158.323044,83.702370 157.635712,84.053032 
	C156.641983,83.685776 155.912399,83.473595 154.997375,82.971497 
	C154.186188,82.461815 153.560425,82.242050 152.588928,82.015060 
	C151.788788,81.947044 151.334412,81.886261 150.880020,81.825470 
	C150.944763,81.425003 151.009521,81.024529 151.202103,80.346207 
	C151.785828,79.891281 152.241745,79.714211 152.825790,79.322067 
	C154.652527,79.364090 156.351135,79.621185 158.421005,79.864899 
z"/>
<path fill="#4086BD" opacity="1.000000" stroke="none" 
	d="
M145.625320,161.894623 
	C145.241806,161.921707 144.858307,161.948792 144.190018,162.028625 
	C142.498932,159.702759 141.092636,157.324158 139.969894,154.339996 
	C141.340363,147.385422 141.561905,141.202332 136.936035,135.616974 
	C138.042862,132.517471 139.059845,129.767014 140.372116,127.049667 
	C141.089676,127.660538 141.511963,128.238297 142.036865,129.271515 
	C142.616867,135.705856 143.094254,141.684723 143.479599,147.922729 
	C143.604309,148.454956 143.821060,148.728058 144.090881,149.419006 
	C144.637741,153.856125 145.131531,157.875366 145.625320,161.894623 
z"/>
<path fill="#4B99D6" opacity="1.000000" stroke="none" 
	d="
M136.846191,135.966019 
	C141.561905,141.202332 141.340363,147.385422 139.882202,153.991089 
	C137.742386,152.190308 135.973801,150.132904 133.849091,147.613205 
	C133.222519,146.131287 132.952057,145.111679 132.767059,143.711456 
	C134.183731,140.875900 135.514969,138.420959 136.846191,135.966019 
z"/>
<path fill="#F9FAFC" opacity="1.000000" stroke="none" 
	d="
M132.681610,144.092072 
	C132.952057,145.111679 133.222519,146.131287 133.544678,147.543808 
	C131.249161,148.232864 128.901947,148.528992 126.162331,149.018234 
	C125.769928,149.211349 125.408226,149.256592 125.239517,149.326569 
	C124.648743,147.943771 124.226669,146.490997 123.447296,144.873993 
	C123.065254,144.333939 123.040527,143.958099 123.381081,143.251450 
	C127.014145,141.103973 130.196396,139.939621 132.681610,144.092072 
z"/>
<path fill="#7EC0EB" opacity="1.000000" stroke="none" 
	d="
M62.333557,99.680321 
	C62.333557,99.680321 62.303864,99.235977 62.277328,99.012825 
	C62.211811,98.095154 62.172829,97.400635 62.070770,96.018692 
	C61.719425,94.495743 61.431156,93.660217 61.142891,92.824684 
	C60.820015,90.819603 60.497139,88.814514 60.347050,86.248154 
	C60.330444,85.126854 60.141052,84.566841 59.951660,84.006828 
	C59.958378,82.938034 59.965096,81.869232 59.979874,80.399658 
	C62.415035,80.308327 64.842133,80.617767 67.686928,80.867722 
	C73.943153,81.897629 79.781677,82.987038 86.681664,84.274498 
	C84.697311,86.499336 83.447212,87.900932 81.754250,89.767990 
	C76.749771,94.815681 72.232590,99.443764 67.590202,103.942650 
	C66.627098,104.875984 65.199341,105.329842 63.985733,106.004684 
	C63.907982,104.966728 63.830231,103.928772 63.753380,102.207062 
	C63.280701,100.908981 62.807129,100.294647 62.333557,99.680321 
z"/>
<path fill="#F7F9FB" opacity="1.000000" stroke="none" 
	d="
M60.876068,93.028465 
	C61.431156,93.660217 61.719425,94.495743 62.012203,95.672531 
	C58.426003,96.666115 60.205856,94.600937 60.876068,93.028465 
z"/>
<path fill="#C2DFF0" opacity="1.000000" stroke="none" 
	d="
M59.731255,84.168701 
	C60.141052,84.566841 60.330444,85.126854 60.336823,85.867844 
	C59.939487,85.476082 59.725166,84.903328 59.731255,84.168701 
z"/>
<path fill="#F3F5F8" opacity="1.000000" stroke="none" 
	d="
M212.093185,118.901962 
	C212.811340,119.675644 213.529480,120.449326 214.262939,121.554276 
	C212.541489,126.010635 210.804749,130.135742 208.621857,134.711441 
	C206.580414,134.953964 204.985123,134.745880 203.203751,134.314423 
	C202.688156,133.879120 202.358658,133.667206 201.824554,133.203262 
	C197.753021,131.297607 193.886093,129.643982 189.955536,127.721176 
	C187.132690,126.078079 184.373474,124.704170 181.431229,123.147865 
	C181.134598,122.644745 181.020996,122.324005 181.183868,122.024338 
	C181.639053,121.998055 181.817749,121.950706 182.425766,121.917831 
	C185.235489,121.602158 187.615921,121.271996 190.434387,120.938232 
	C197.190186,120.286247 203.507950,119.637856 210.204239,118.989120 
	C211.086243,118.959846 211.589722,118.930908 212.093185,118.901962 
z"/>
<path fill="#F7F9FB" opacity="1.000000" stroke="none" 
	d="
M217.929642,141.471680 
	C217.883621,141.842178 217.452621,141.961594 217.217072,141.700745 
	C216.930862,141.272781 216.880203,141.105637 216.714081,140.630646 
	C214.857635,138.595108 213.116638,136.867447 211.375641,135.139786 
	C212.809158,131.568405 214.242676,127.997040 216.085541,123.405891 
	C216.928696,126.342056 217.483200,128.273056 218.089020,130.588455 
	C218.085434,134.348953 218.030548,137.725067 217.929642,141.471680 
z"/>
<path fill="#6181AF" opacity="1.000000" stroke="none" 
	d="
M211.078308,135.108917 
	C213.116638,136.867447 214.857635,138.595108 216.393951,140.645737 
	C212.966370,140.965973 209.743423,140.963242 206.482666,140.586487 
	C205.218506,138.583694 203.992188,136.954910 202.921448,135.128693 
	C203.181290,134.800125 203.285568,134.668961 203.389847,134.537796 
	C204.985123,134.745880 206.580414,134.953964 208.572906,135.071838 
	C209.573730,135.013763 210.177353,135.045914 211.078308,135.108917 
z"/>
<path fill="#F7F9FB" opacity="1.000000" stroke="none" 
	d="
M208.445007,113.359421 
	C209.798126,114.305763 210.824463,115.105606 212.193909,115.966400 
	C212.520889,116.241570 212.504776,116.455788 211.938599,116.867302 
	C209.595963,117.387657 207.803406,117.710716 205.551559,117.955521 
	C199.738510,118.266304 194.384750,118.655334 188.622467,118.989609 
	C187.119446,118.988586 186.024963,119.042328 184.626877,119.077713 
	C183.919525,119.090126 183.515762,119.120888 182.835373,119.098984 
	C182.371552,119.060661 182.184357,119.075005 181.664856,119.016022 
	C181.061356,118.312180 180.402466,117.533478 180.578171,117.073746 
	C182.642471,111.672752 184.831955,106.319595 186.988419,100.953827 
	C190.746658,102.658653 194.504913,104.363480 198.637619,106.024559 
	C202.047470,108.391510 205.082855,110.802208 208.445007,113.359421 
z"/>
<path fill="#9EB0CD" opacity="1.000000" stroke="none" 
	d="
M206.010849,118.033775 
	C207.803406,117.710716 209.595963,117.387657 211.802521,117.159393 
	C212.182755,117.619072 212.148987,117.983955 212.104202,118.625397 
	C211.589722,118.930908 211.086243,118.959846 209.853836,119.026855 
	C208.086884,118.721207 207.048859,118.377487 206.010849,118.033775 
z"/>
<path fill="#F3F5F8" opacity="1.000000" stroke="none" 
	d="
M197.945984,160.717941 
	C197.945984,160.717941 197.468597,160.852173 196.859192,160.848114 
	C191.485397,159.556473 186.721008,158.268906 181.674774,156.862305 
	C180.309250,156.163223 179.225555,155.583191 177.967300,154.757019 
	C177.440765,154.334167 177.088806,154.157440 176.820740,153.613312 
	C176.950989,152.496506 176.997330,151.747131 177.441956,151.047424 
	C178.907990,151.024384 179.975769,150.951691 181.454834,150.884613 
	C183.955399,150.604340 186.040619,150.119019 188.134811,150.076538 
	C191.829666,150.001633 195.955002,147.964188 199.031311,152.422058 
	C198.766953,155.415802 198.356476,158.066879 197.945984,160.717941 
z"/>
<path fill="#F3F5F8" opacity="1.000000" stroke="none" 
	d="
M218.244141,144.815628 
	C218.504562,145.677094 218.514099,146.441727 218.393066,147.475784 
	C215.523636,151.617950 212.784760,155.490707 210.023834,159.719574 
	C209.263855,160.103088 208.525894,160.130463 207.383682,159.671143 
	C204.233795,156.207321 203.001221,152.951691 205.434662,148.909790 
	C209.473358,147.383957 213.196716,146.027634 216.920074,144.671326 
	C217.277802,144.687164 217.635529,144.702988 218.244141,144.815628 
z"/>
<path fill="#9BAECD" opacity="1.000000" stroke="none" 
	d="
M205.119339,149.079285 
	C203.001221,152.951691 204.233795,156.207321 207.031677,159.536285 
	C204.855545,164.642517 201.525818,162.889496 198.092087,161.051544 
	C198.356476,158.066879 198.766953,155.415802 199.322235,152.213791 
	C200.341995,148.593887 201.857635,146.926559 205.119339,149.079285 
z"/>
<path fill="#97AECE" opacity="1.000000" stroke="none" 
	d="
M181.956604,156.981339 
	C186.721008,158.268906 191.485397,159.556473 196.620911,160.916626 
	C197.192932,162.204453 197.393860,163.419678 197.349731,164.827850 
	C196.910980,165.017120 196.717331,165.013458 196.153534,164.664444 
	C191.174454,161.873169 186.565521,159.427246 181.956604,156.981339 
z"/>
<path fill="#F5F7FA" opacity="1.000000" stroke="none" 
	d="
M181.674774,156.862305 
	C186.565521,159.427246 191.174454,161.873169 195.863007,164.661835 
	C195.821198,165.955444 195.699753,166.906265 195.467010,168.189941 
	C193.779175,170.016296 192.202621,171.509827 190.295288,173.091675 
	C189.654999,173.032227 189.345490,172.884460 188.658813,172.355713 
	C185.684631,168.637817 182.903137,165.424057 180.561951,161.916397 
	C179.224930,159.913223 175.694733,158.413315 178.141861,155.003159 
	C179.225555,155.583191 180.309250,156.163223 181.674774,156.862305 
z"/>
<path fill="#F3F5F8" opacity="1.000000" stroke="none" 
	d="
M177.295380,174.309631 
	C175.890610,172.900314 174.861542,171.397369 173.848679,169.126862 
	C173.502243,164.869003 173.139603,161.378693 172.776962,157.888397 
	C173.201874,157.756760 173.626785,157.625122 174.051712,157.493484 
	C178.086563,162.660080 182.121429,167.826660 186.156281,172.993256 
	C183.327881,173.400833 180.499481,173.808411 177.295380,174.309631 
z"/>
<path fill="#9EB0CD" opacity="1.000000" stroke="none" 
	d="
M186.556976,172.970139 
	C182.121429,167.826660 178.086563,162.660080 174.051712,157.493484 
	C173.626785,157.625122 173.201874,157.756760 172.776962,157.888397 
	C173.139603,161.378693 173.502243,164.869003 173.756287,168.777664 
	C173.084915,169.176010 172.522110,169.156006 171.680237,169.168671 
	C170.969711,165.018448 170.538254,160.835526 170.588715,156.230469 
	C172.959366,155.199127 174.848099,154.589920 176.736832,153.980713 
	C177.088806,154.157440 177.440765,154.334167 177.967300,154.757019 
	C175.694733,158.413315 179.224930,159.913223 180.561951,161.916397 
	C182.903137,165.424057 185.684631,168.637817 188.409348,172.292694 
	C188.010574,172.722809 187.484131,172.834915 186.556976,172.970139 
z"/>
<path fill="#8BA0C3" opacity="1.000000" stroke="none" 
	d="
M205.434662,148.909790 
	C201.857635,146.926559 200.341995,148.593887 199.176117,151.871124 
	C195.955002,147.964188 191.829666,150.001633 188.134811,150.076538 
	C186.040619,150.119019 183.955399,150.604340 181.447906,150.573669 
	C181.020599,149.840500 181.011505,149.423920 181.398895,148.926575 
	C185.500854,148.170685 189.206329,147.495560 193.643616,146.687073 
	C191.483917,143.124619 189.971207,140.629395 188.929291,138.047501 
	C189.711060,137.889206 190.022064,137.817612 190.595093,137.955536 
	C192.587769,140.541992 194.222534,142.998566 196.097351,145.255707 
	C196.823349,146.129761 198.632538,147.329346 199.027512,147.055008 
	C201.664185,145.223648 204.051926,143.033875 206.520493,140.960495 
	C209.743423,140.963242 212.966370,140.965973 216.509415,140.953613 
	C216.880203,141.105637 216.930862,141.272781 216.993469,141.701599 
	C217.005157,142.564896 217.004944,143.166504 216.962402,144.219711 
	C213.196716,146.027634 209.473358,147.383957 205.434662,148.909790 
z"/>
<path fill="#3382BE" opacity="1.000000" stroke="none" 
	d="
M82.722885,132.847046 
	C77.761520,126.549103 73.143799,120.414368 68.217606,114.138252 
	C67.907799,112.918640 67.906456,111.840408 68.143036,110.164078 
	C73.562927,103.694458 78.744888,97.822952 83.926857,91.951439 
	C86.266083,90.760292 88.605301,89.569153 91.241821,88.940277 
	C94.706673,95.919685 97.874229,102.336823 101.131165,108.935028 
	C99.656166,111.314224 97.789696,114.297401 95.951241,117.297745 
	C93.970627,120.530098 92.016281,123.778526 90.050468,127.019943 
	C87.195877,128.402740 87.951904,133.995071 82.722885,132.847046 
z"/>
<path fill="#DDEAF4" opacity="1.000000" stroke="none" 
	d="
M90.441330,127.018829 
	C92.016281,123.778526 93.970627,120.530098 95.951241,117.297745 
	C97.789696,114.297401 99.656166,111.314224 101.131165,108.935028 
	C97.874229,102.336823 94.706673,95.919685 91.552002,89.179123 
	C92.444717,88.245392 93.324547,87.635094 94.619942,87.401917 
	C97.555725,93.145615 99.936989,98.587135 102.747452,103.797127 
	C103.164291,104.569847 105.880791,104.857018 107.060318,104.323334 
	C110.761276,102.648773 114.236290,100.474861 118.713226,97.986015 
	C116.221016,96.734947 114.656082,95.957512 113.098404,95.165810 
	C109.369690,93.270638 105.644386,91.368721 101.947052,89.022507 
	C102.010742,87.985451 102.045074,87.395432 102.449028,86.848289 
	C108.653442,89.930641 114.488235,92.970108 120.186234,96.315102 
	C121.382683,101.833710 116.922852,102.957260 113.652481,105.165657 
	C111.080872,106.422615 108.868195,107.687805 106.355843,108.962891 
	C105.312607,109.040237 104.569038,109.107674 102.694260,109.277718 
	C104.648331,110.169502 105.603943,110.605621 106.749451,111.235695 
	C107.220810,111.649658 107.502251,111.869675 107.849503,112.437576 
	C110.228531,116.057785 112.541756,119.330101 114.346985,122.711784 
	C113.149544,122.903900 112.460106,122.986649 111.531158,122.847221 
	C108.504913,119.324303 105.718163,116.023552 102.491104,112.201279 
	C98.994926,117.771217 96.086334,122.405060 93.177742,127.038895 
	C92.395889,127.031830 91.614037,127.024773 90.441330,127.018829 
z"/>
<path fill="#86C3EB" opacity="1.000000" stroke="none" 
	d="
M101.917709,89.469536 
	C105.644386,91.368721 109.369690,93.270638 113.098404,95.165810 
	C114.656082,95.957512 116.221016,96.734947 118.713226,97.986015 
	C114.236290,100.474861 110.761276,102.648773 107.060318,104.323334 
	C105.880791,104.857018 103.164291,104.569847 102.747452,103.797127 
	C99.936989,98.587135 97.555725,93.145615 95.044235,87.405411 
	C95.052956,87.031769 95.539368,87.070831 96.049507,87.232491 
	C97.325974,87.655899 98.092300,87.917648 99.163544,88.308617 
	C100.284882,88.781731 101.101295,89.125633 101.917709,89.469536 
z"/>
<path fill="#4AA1DF" opacity="1.000000" stroke="none" 
	d="
M120.323021,96.009583 
	C114.488235,92.970108 108.653442,89.930641 102.246140,86.640511 
	C101.116020,86.255989 100.558411,86.122139 99.775940,85.751694 
	C99.426086,84.707161 99.301086,83.899223 99.176079,83.091278 
	C101.554169,82.875214 103.932251,82.659157 106.677414,82.313576 
	C117.626785,82.091942 117.626785,82.091942 121.851227,93.683067 
	C121.752106,94.513939 121.518867,94.994926 120.996674,95.744827 
	C120.707733,96.013733 120.323021,96.009583 120.323021,96.009583 
z"/>
<path fill="#D1E3F0" opacity="1.000000" stroke="none" 
	d="
M83.662262,91.817352 
	C78.744888,97.822952 73.562927,103.694458 68.107590,109.760551 
	C66.399063,108.758560 64.963905,107.561989 63.757236,106.185059 
	C65.199341,105.329842 66.627098,104.875984 67.590202,103.942650 
	C72.232590,99.443764 76.749771,94.815681 81.592758,90.063187 
	C82.381973,90.489700 82.889816,91.086487 83.662262,91.817352 
z"/>
<path fill="#DDEAF4" opacity="1.000000" stroke="none" 
	d="
M98.773834,83.053787 
	C99.301086,83.899223 99.426086,84.707161 99.661278,86.037018 
	C99.467186,87.099083 99.162903,87.639236 98.858627,88.179398 
	C98.092300,87.917648 97.325974,87.655899 96.293213,87.244370 
	C96.808380,85.735153 97.589989,84.375725 98.773834,83.053787 
z"/>
<path fill="#B3CDE1" opacity="1.000000" stroke="none" 
	d="
M102.248413,80.256149 
	C103.773140,79.684517 105.545410,79.387634 107.715622,79.211761 
	C107.886139,79.827118 107.658714,80.321449 107.194336,80.970749 
	C105.470222,80.927444 103.983086,80.729172 102.248413,80.256149 
z"/>
<path fill="#FAFBFC" opacity="1.000000" stroke="none" 
	d="
M155.182816,83.261414 
	C155.912399,83.473595 156.641983,83.685776 157.662949,84.415390 
	C158.324478,86.030685 158.612595,87.164665 159.077637,88.220734 
	C163.024719,97.184143 167.004013,106.133347 170.973648,115.086807 
	C171.294189,116.511398 171.614731,117.935982 171.542938,119.782928 
	C163.475739,120.780731 155.788193,121.228523 148.131577,121.987892 
	C144.543121,122.343788 142.904312,121.111458 143.019287,117.538261 
	C143.008759,117.544624 143.001297,117.524261 143.361435,117.393669 
	C144.812225,114.175056 145.902878,111.087036 147.227814,107.757721 
	C147.995590,106.007370 148.529099,104.498314 149.420624,102.922577 
	C150.176254,101.547424 150.573837,100.238945 150.997375,98.552109 
	C152.020294,94.450821 153.017227,90.727898 154.107758,86.689514 
	C154.528503,85.336502 154.855667,84.298950 155.182816,83.261414 
z"/>
<path fill="#93A9CA" opacity="1.000000" stroke="none" 
	d="
M143.029816,117.531898 
	C142.904312,121.111458 144.543121,122.343788 148.131577,121.987892 
	C155.788193,121.228523 163.475739,120.780731 171.579163,120.149422 
	C172.195160,120.111183 172.382599,120.128807 172.825195,120.525093 
	C173.027054,121.627754 172.973755,122.351738 172.518799,123.146179 
	C163.105042,123.843422 154.092957,124.470222 145.004272,124.816879 
	C143.602890,123.238121 142.278122,121.939507 141.033615,120.327637 
	C141.752533,119.186882 142.391174,118.359390 143.029816,117.531898 
z"/>
<path fill="#97AECE" opacity="1.000000" stroke="none" 
	d="
M171.339081,115.062424 
	C167.004013,106.133347 163.024719,97.184143 159.077637,88.220734 
	C158.612595,87.164665 158.324478,86.030685 157.927094,84.570465 
	C158.323044,83.702370 158.746201,83.196632 159.395264,82.752350 
	C163.786209,92.501640 167.988434,102.173943 172.051147,111.904510 
	C172.405365,112.752884 171.841797,113.984451 171.339081,115.062424 
z"/>
<path fill="#9BAECD" opacity="1.000000" stroke="none" 
	d="
M186.848297,100.658081 
	C184.831955,106.319595 182.642471,111.672752 180.578171,117.073746 
	C180.402466,117.533478 181.061356,118.312180 181.666962,119.368225 
	C181.999756,120.496941 181.998108,121.200150 181.996460,121.903351 
	C181.817749,121.950706 181.639053,121.998055 180.839691,122.008362 
	C179.114883,120.936325 178.010757,119.901344 176.906616,118.866364 
	C179.231247,112.174904 181.555893,105.483444 183.892151,98.405792 
	C184.838593,98.800514 185.773392,99.581421 186.848297,100.658081 
z"/>
<path fill="#385E9E" opacity="1.000000" stroke="none" 
	d="
M176.595779,118.758972 
	C178.010757,119.901344 179.114883,120.936325 180.563202,121.987289 
	C181.020996,122.324005 181.134598,122.644745 181.387177,123.422600 
	C181.614273,124.431999 181.702393,124.984283 181.478348,125.679741 
	C180.726929,125.950302 180.287689,126.077690 179.588715,126.054276 
	C178.256912,125.669418 177.184799,125.435341 175.846100,124.994308 
	C174.687149,124.234451 173.794800,123.681541 172.909821,123.116272 
	C172.917175,123.103905 172.920456,123.075729 172.920456,123.075729 
	C172.973755,122.351738 173.027054,121.627754 173.107117,120.541565 
	C174.184250,119.670105 175.234604,119.160843 176.595779,118.758972 
z"/>
<path fill="#D1E3F0" opacity="1.000000" stroke="none" 
	d="
M62.250576,99.997284 
	C62.807129,100.294647 63.280701,100.908981 63.660061,101.828362 
	C63.099766,101.527023 62.633682,100.920631 62.250576,99.997284 
z"/>
<path fill="#3B9EE2" opacity="1.000000" stroke="none" 
	d="
M93.091484,127.386711 
	C96.086334,122.405060 98.994926,117.771217 102.491104,112.201279 
	C105.718163,116.023552 108.504913,119.324303 111.614075,123.187454 
	C115.485451,128.530624 118.970108,133.361252 122.618050,138.065262 
	C123.905022,139.724823 124.437340,140.848312 121.905136,141.547394 
	C116.385872,140.780746 110.860992,140.052048 105.348946,139.236649 
	C99.990303,138.443939 94.644806,137.562347 87.903587,136.500946 
	C89.895500,133.078125 91.450363,130.406326 93.091484,127.386711 
z"/>
<path fill="#CEDEEC" opacity="1.000000" stroke="none" 
	d="
M121.964050,141.779449 
	C124.437340,140.848312 123.905022,139.724823 122.618050,138.065262 
	C118.970108,133.361252 115.485451,128.530624 111.853577,123.409637 
	C112.460106,122.986649 113.149544,122.903900 114.573227,122.775864 
	C115.760719,122.890114 116.213959,123.049637 116.760620,123.542313 
	C120.696098,129.082458 124.538170,134.289474 128.934036,140.247009 
	C130.836014,137.204163 132.103134,135.176987 133.617706,132.934906 
	C135.935730,130.818863 138.006271,128.917709 140.076828,127.016548 
	C139.059845,129.767014 138.042862,132.517471 136.936035,135.616974 
	C135.514969,138.420959 134.183731,140.875900 132.767059,143.711456 
	C130.196396,139.939621 127.014145,141.103973 123.376175,142.966599 
	C122.678307,142.678879 122.350639,142.345184 121.964050,141.779449 
z"/>
<path fill="#D6E8F4" opacity="1.000000" stroke="none" 
	d="
M55.723198,125.600784 
	C56.258423,126.559662 56.434326,127.627556 56.367188,128.886322 
	C55.730213,129.054214 55.336288,129.031235 54.355560,128.913849 
	C54.300468,127.782875 54.832172,126.746346 55.723198,125.600784 
z"/>
<path fill="#F5F7FA" opacity="1.000000" stroke="none" 
	d="
M143.019287,117.538261 
	C142.391174,118.359390 141.752533,119.186882 140.699646,120.408127 
	C135.227341,113.621002 130.152100,106.451988 125.154205,99.229454 
	C124.857391,98.800522 125.181313,97.942070 125.216385,97.283478 
	C131.850189,93.148911 138.483994,89.014351 145.298065,84.585632 
	C147.069214,83.549644 148.660126,82.807800 150.565521,81.945717 
	C151.334412,81.886261 151.788788,81.947044 152.602631,82.375580 
	C152.900436,83.704201 152.838791,84.665062 152.511169,85.879578 
	C150.650391,90.381523 149.055573,94.629814 147.212265,99.540016 
	C149.149582,99.225876 150.060501,99.078171 150.971420,98.930466 
	C150.573837,100.238945 150.176254,101.547424 149.096161,102.811302 
	C144.071991,102.391678 146.028381,106.204590 144.817719,108.354950 
	C144.131409,111.653252 143.566360,114.588760 143.001297,117.524261 
	C143.001297,117.524261 143.008759,117.544624 143.019287,117.538261 
z"/>
<path fill="#526FA7" opacity="1.000000" stroke="none" 
	d="
M124.986923,96.976868 
	C125.181313,97.942070 124.857391,98.800522 125.154205,99.229454 
	C130.152100,106.451988 135.227341,113.621002 140.619385,120.721390 
	C142.278122,121.939507 143.602890,123.238121 144.919006,125.006332 
	C145.125488,125.992722 145.340622,126.509521 145.249207,127.027786 
	C144.636093,127.275414 144.329529,127.521576 143.725815,127.805687 
	C142.930527,128.167770 142.432373,128.491913 141.934235,128.816055 
	C141.511963,128.238297 141.089676,127.660538 140.372116,127.049667 
	C138.006271,128.917709 135.935730,130.818863 133.204895,132.885437 
	C129.908798,132.806931 129.267822,131.253967 130.743561,129.356598 
	C133.190613,126.210327 131.403976,124.608864 128.972183,122.981026 
	C126.141342,121.086090 124.580910,118.774155 125.333282,115.018860 
	C125.636543,113.505203 124.442657,111.691582 123.940651,110.048920 
	C118.805305,111.609612 117.515274,114.504379 117.908638,118.701088 
	C118.044662,120.152245 117.111816,121.703583 116.667206,123.209160 
	C116.213959,123.049637 115.760719,122.890114 115.081223,122.666504 
	C112.541756,119.330101 110.228531,116.057785 108.184708,112.285606 
	C110.043076,109.360344 114.796112,109.594360 114.011406,105.173882 
	C116.922852,102.957260 121.382683,101.833710 120.186234,96.315102 
	C120.323021,96.009583 120.707733,96.013733 120.900330,95.994904 
	C122.314445,96.207474 123.535957,96.438866 124.986923,96.976868 
z"/>
<path fill="#F3F8FC" opacity="1.000000" stroke="none" 
	d="
M41.034000,133.694275 
	C40.565147,133.739822 39.813480,133.658066 39.052814,133.255493 
	C39.612938,133.145447 40.182060,133.356201 41.034000,133.694275 
z"/>
<path fill="#385E9E" opacity="1.000000" stroke="none" 
	d="
M176.820740,153.613312 
	C174.848099,154.589920 172.959366,155.199127 170.709595,155.775467 
	C169.469666,155.202835 168.590790,154.663071 167.445847,153.738541 
	C167.179779,153.353775 166.974457,152.978607 167.090149,152.682922 
	C167.408478,151.629135 167.611099,150.871017 168.017731,149.864548 
	C168.801193,149.360168 169.380630,149.104156 170.355423,148.838257 
	C171.274582,148.774460 171.798370,148.720535 172.471100,148.901749 
	C173.072617,149.458511 173.525208,149.780151 174.136902,150.415802 
	C175.211884,150.819107 176.127777,150.908432 177.043671,150.997742 
	C176.997330,151.747131 176.950989,152.496506 176.820740,153.613312 
z"/>
<path fill="#A5B6CF" opacity="1.000000" stroke="none" 
	d="
M166.974457,152.978607 
	C166.974457,152.978607 167.179779,153.353775 167.177261,153.567535 
	C163.018265,156.839539 158.861801,159.897781 154.344238,162.961533 
	C153.956116,162.688461 153.929077,162.409851 153.958557,161.442657 
	C158.334885,158.162247 162.654678,155.570435 166.974457,152.978607 
z"/>
<path fill="#F9FAFC" opacity="1.000000" stroke="none" 
	d="
M167.090149,152.682922 
	C162.654678,155.570435 158.334885,158.162247 153.899857,161.026886 
	C152.194641,162.008301 150.657639,162.937897 148.993423,163.336594 
	C148.099228,163.550812 146.986633,162.853531 145.798950,162.231079 
	C145.131531,157.875366 144.637741,153.856125 144.117020,149.168640 
	C143.917282,148.221481 143.744461,147.942551 143.571640,147.663605 
	C143.094254,141.684723 142.616867,135.705856 142.036865,129.271515 
	C142.432373,128.491913 142.930527,128.167770 143.827545,128.135574 
	C146.364807,130.358444 148.503189,132.289352 150.780823,134.530319 
	C156.551300,139.931229 162.182526,145.022064 167.813721,150.112915 
	C167.611099,150.871017 167.408478,151.629135 167.090149,152.682922 
z"/>
<path fill="#97AECE" opacity="1.000000" stroke="none" 
	d="
M152.777130,85.625931 
	C152.838791,84.665062 152.900436,83.704201 152.948380,82.382812 
	C153.560425,82.242050 154.186188,82.461815 154.997375,82.971497 
	C154.855667,84.298950 154.528503,85.336502 153.836243,86.527924 
	C153.239807,86.329842 153.008469,85.977882 152.777130,85.625931 
z"/>
<path fill="#93A9CA" opacity="1.000000" stroke="none" 
	d="
M143.479599,147.922729 
	C143.744461,147.942551 143.917282,148.221481 144.063965,148.750793 
	C143.821060,148.728058 143.604309,148.454956 143.479599,147.922729 
z"/>
<path fill="#758BB9" opacity="1.000000" stroke="none" 
	d="
M205.551559,117.955521 
	C207.048859,118.377487 208.086884,118.721207 209.475296,119.027191 
	C203.507950,119.637856 197.190186,120.286247 190.329529,120.691856 
	C189.534744,119.980843 189.282867,119.512604 189.030991,119.044373 
	C194.384750,118.655334 199.738510,118.266304 205.551559,117.955521 
z"/>
<path fill="#9BAECD" opacity="1.000000" stroke="none" 
	d="
M190.019150,127.990349 
	C193.886093,129.643982 197.753021,131.297607 201.794907,133.638428 
	C201.923233,134.611801 201.876633,134.897949 201.466217,135.160995 
	C196.804535,132.747467 192.506622,130.357010 188.510162,127.982246 
	C189.214111,127.995399 189.616623,127.992874 190.019150,127.990349 
z"/>
<path fill="#A5B6CF" opacity="1.000000" stroke="none" 
	d="
M189.955536,127.721176 
	C189.616623,127.992874 189.214111,127.995399 188.211014,127.956909 
	C187.411453,127.924355 187.212479,127.932808 186.741776,127.827156 
	C185.649719,128.257019 184.829361,128.800980 183.732025,129.293076 
	C182.998581,128.917557 182.542130,128.593887 182.049805,127.813950 
	C181.939438,126.750648 181.864975,126.143600 181.790512,125.536560 
	C181.702393,124.984283 181.614273,124.431999 181.570190,123.604988 
	C184.373474,124.704170 187.132690,126.078079 189.955536,127.721176 
z"/>
<path fill="#9EB0CD" opacity="1.000000" stroke="none" 
	d="
M188.622467,118.989609 
	C189.282867,119.512604 189.534744,119.980843 189.891479,120.695465 
	C187.615921,121.271996 185.235489,121.602158 182.425766,121.917831 
	C181.998108,121.200150 181.999756,120.496941 181.999298,119.441544 
	C182.184357,119.075005 182.371552,119.060661 182.964935,119.309372 
	C183.890900,119.413643 184.410690,119.254845 184.930466,119.096054 
	C186.024963,119.042328 187.119446,118.988586 188.622467,118.989609 
z"/>
<path fill="#6181AF" opacity="1.000000" stroke="none" 
	d="
M201.830017,135.184082 
	C201.876633,134.897949 201.923233,134.611801 201.999512,133.890472 
	C202.358658,133.667206 202.688156,133.879120 203.203751,134.314423 
	C203.285568,134.668961 203.181290,134.800125 202.684433,135.117645 
	C202.291855,135.303986 201.830017,135.184082 201.830017,135.184082 
z"/>
<path fill="#F5F7FA" opacity="1.000000" stroke="none" 
	d="
M201.466217,135.160995 
	C201.830017,135.184082 202.291855,135.303986 202.528870,135.315048 
	C203.992188,136.954910 205.218506,138.583694 206.482666,140.586487 
	C204.051926,143.033875 201.664185,145.223648 199.027512,147.055008 
	C198.632538,147.329346 196.823349,146.129761 196.097351,145.255707 
	C194.222534,142.998566 192.587769,140.541992 190.468109,137.648468 
	C188.696396,135.139862 187.313705,133.147888 185.974014,130.815002 
	C186.349167,129.629822 186.681335,128.785538 187.013489,127.941254 
	C187.212479,127.932808 187.411453,127.924355 187.909576,127.941238 
	C192.506622,130.357010 196.804535,132.747467 201.466217,135.160995 
z"/>
<path fill="#758BB9" opacity="1.000000" stroke="none" 
	d="
M184.626877,119.077713 
	C184.410690,119.254845 183.890900,119.413643 183.241562,119.362045 
	C183.515762,119.120888 183.919525,119.090126 184.626877,119.077713 
z"/>
<path fill="#A5B6CF" opacity="1.000000" stroke="none" 
	d="
M177.441940,151.047424 
	C176.127777,150.908432 175.211884,150.819107 174.377228,150.096710 
	C176.639786,149.311523 178.821091,149.159424 181.002411,149.007324 
	C181.011505,149.423920 181.020599,149.840500 181.036621,150.568054 
	C179.975769,150.951691 178.907990,151.024384 177.441940,151.047424 
z"/>
<path fill="#F9FAFC" opacity="1.000000" stroke="none" 
	d="
M181.398895,148.926575 
	C178.821091,149.159424 176.639786,149.311523 174.218140,149.782715 
	C173.525208,149.780151 173.072617,149.458511 172.626068,148.570007 
	C173.792297,140.402512 174.952499,132.801880 176.112701,125.201263 
	C177.184799,125.435341 178.256912,125.669418 179.631287,126.406487 
	C180.650955,127.363068 181.368317,127.816643 182.085693,128.270218 
	C182.542130,128.593887 182.998581,128.917557 183.723267,129.285645 
	C183.991486,129.330093 183.972076,129.317917 183.776260,129.635132 
	C185.206467,132.679626 186.832489,135.406906 188.458511,138.134186 
	C189.971207,140.629395 191.483917,143.124619 193.643616,146.687073 
	C189.206329,147.495560 185.500854,148.170685 181.398895,148.926575 
z"/>
<path fill="#A5B6CF" opacity="1.000000" stroke="none" 
	d="
M188.929291,138.047501 
	C186.832489,135.406906 185.206467,132.679626 183.975937,129.912933 
	C184.891296,130.300995 185.411163,130.728455 185.931030,131.155914 
	C187.313705,133.147888 188.696396,135.139862 190.206070,137.438919 
	C190.022064,137.817612 189.711060,137.889206 188.929291,138.047501 
z"/>
<path fill="#5775AC" opacity="1.000000" stroke="none" 
	d="
M113.652481,105.165657 
	C114.796112,109.594360 110.043076,109.360344 108.118912,111.937714 
	C107.502251,111.869675 107.220810,111.649658 106.845001,110.894241 
	C106.718933,109.890213 106.687225,109.421600 106.655518,108.952988 
	C108.868195,107.687805 111.080872,106.422615 113.652481,105.165657 
z"/>
<path fill="#F3F8FC" opacity="1.000000" stroke="none" 
	d="
M99.163544,88.308609 
	C99.162903,87.639236 99.467186,87.099083 99.886131,86.273605 
	C100.558411,86.122139 101.116020,86.255989 101.876526,86.597626 
	C102.045074,87.395432 102.010742,87.985451 101.947052,89.022507 
	C101.101295,89.125633 100.284882,88.781731 99.163544,88.308609 
z"/>
<path fill="#CEDEEC" opacity="1.000000" stroke="none" 
	d="
M106.355843,108.962891 
	C106.687225,109.421600 106.718933,109.890213 106.655090,110.700287 
	C105.603943,110.605621 104.648331,110.169502 102.694260,109.277718 
	C104.569038,109.107674 105.312607,109.040237 106.355843,108.962891 
z"/>
<path fill="#9EB0CD" opacity="1.000000" stroke="none" 
	d="
M152.511169,85.879578 
	C153.008469,85.977882 153.239807,86.329842 153.742661,86.843384 
	C153.017227,90.727898 152.020294,94.450821 150.997375,98.552109 
	C150.060501,99.078171 149.149582,99.225876 147.212265,99.540016 
	C149.055573,94.629814 150.650391,90.381523 152.511169,85.879578 
z"/>
<path fill="#93A9CA" opacity="1.000000" stroke="none" 
	d="
M143.361435,117.393669 
	C143.566360,114.588760 144.131409,111.653252 145.160614,108.356674 
	C146.081024,107.996735 146.537292,107.997871 146.993546,107.999016 
	C145.902878,111.087036 144.812225,114.175056 143.361435,117.393669 
z"/>
<path fill="#9BAECD" opacity="1.000000" stroke="none" 
	d="
M147.227814,107.757721 
	C146.537292,107.997871 146.081024,107.996735 145.281860,107.993874 
	C146.028381,106.204590 144.071991,102.391678 148.738129,102.877983 
	C148.529099,104.498314 147.995590,106.007370 147.227814,107.757721 
z"/>
<path fill="#F9FAFC" opacity="1.000000" stroke="none" 
	d="
M145.555756,127.026321 
	C145.340622,126.509521 145.125488,125.992722 144.995605,125.286476 
	C154.092957,124.470222 163.105042,123.843422 172.518799,123.146179 
	C172.920456,123.075729 172.917175,123.103905 172.949829,123.529709 
	C171.940262,130.286575 170.999893,136.637878 169.749298,142.927521 
	C169.554825,143.905624 167.943558,144.602036 166.700867,145.211182 
	C161.620621,140.972824 156.826950,136.951981 151.746857,132.774719 
	C149.492233,130.754303 147.524002,128.890320 145.555756,127.026321 
z"/>
<path fill="#A5B6CF" opacity="1.000000" stroke="none" 
	d="
M166.987457,145.428711 
	C167.943558,144.602036 169.554825,143.905624 169.749298,142.927521 
	C170.999893,136.637878 171.940262,130.286575 172.942474,123.542068 
	C173.794800,123.681541 174.687149,124.234451 175.846100,124.994308 
	C174.952499,132.801880 173.792297,140.402512 172.477142,148.334869 
	C171.798370,148.720535 171.274582,148.774460 170.165253,148.608032 
	C168.715622,147.401367 167.851547,146.415039 166.987457,145.428711 
z"/>
<path fill="#9BAECD" opacity="1.000000" stroke="none" 
	d="
M182.049805,127.813950 
	C181.368317,127.816643 180.650955,127.363068 179.891006,126.557281 
	C180.287689,126.077690 180.726929,125.950302 181.478348,125.679741 
	C181.864975,126.143600 181.939438,126.750648 182.049805,127.813950 
z"/>
<path fill="#5775AC" opacity="1.000000" stroke="none" 
	d="
M116.760620,123.542313 
	C117.111816,121.703583 118.044662,120.152245 117.908638,118.701088 
	C117.515274,114.504379 118.805305,111.609612 123.940651,110.048920 
	C124.442657,111.691582 125.636543,113.505203 125.333282,115.018860 
	C124.580910,118.774155 126.141342,121.086090 128.972183,122.981026 
	C131.403976,124.608864 133.190613,126.210327 130.743561,129.356598 
	C129.267822,131.253967 129.908798,132.806931 132.957428,133.100342 
	C132.103134,135.176987 130.836014,137.204163 128.934036,140.247009 
	C124.538170,134.289474 120.696098,129.082458 116.760620,123.542313 
z"/>
<path fill="#93A9CA" opacity="1.000000" stroke="none" 
	d="
M145.249207,127.027786 
	C147.524002,128.890320 149.492233,130.754303 151.585632,133.056290 
	C151.354385,133.736282 150.997986,133.978271 150.641571,134.220261 
	C148.503189,132.289352 146.364807,130.358444 144.124695,128.097626 
	C144.329529,127.521576 144.636093,127.275414 145.249207,127.027786 
z"/>
<path fill="#9EB0CD" opacity="1.000000" stroke="none" 
	d="
M150.780823,134.530319 
	C150.997986,133.978271 151.354385,133.736282 151.872040,133.212708 
	C156.826950,136.951981 161.620621,140.972824 166.700882,145.211197 
	C167.851547,146.415039 168.715622,147.401367 169.769897,148.617920 
	C169.380630,149.104156 168.801193,149.360168 168.017746,149.864548 
	C162.182526,145.022064 156.551300,139.931229 150.780823,134.530319 
z"/>
<path fill="#F3F5F8" opacity="1.000000" stroke="none" 
	d="
M185.974014,130.815002 
	C185.411163,130.728455 184.891296,130.300995 184.171753,129.595718 
	C183.972076,129.317917 183.991486,129.330093 184.000244,129.337524 
	C184.829361,128.800980 185.649719,128.257019 186.741776,127.827156 
	C186.681335,128.785538 186.349167,129.629822 185.974014,130.815002 
z"/>
</svg>